<?xml version="1.0" encoding="UTF-8" standalone="no"?>
<!-- Created with Inkscape (http://www.inkscape.org/) -->

<svg
   width="273.37mm"
   height="171.028mm"
   viewBox="0 0 273.37 171.028"
   version="1.1"
   id="svg5"
   inkscape:version="1.2.2 (732a01da63, 2022-12-09)"
   sodipodi:docname="desenho.svg"
   xmlns:inkscape="http://www.inkscape.org/namespaces/inkscape"
   xmlns:sodipodi="http://sodipodi.sourceforge.net/DTD/sodipodi-0.dtd"
   xmlns="http://www.w3.org/2000/svg"
   xmlns:svg="http://www.w3.org/2000/svg">
  <sodipodi:namedview
     id="namedview7"
     pagecolor="#ffffff"
     bordercolor="#000000"
     borderopacity="0.25"
     inkscape:showpageshadow="2"
     inkscape:pageopacity="0.0"
     inkscape:pagecheckerboard="0"
     inkscape:deskcolor="#d1d1d1"
     inkscape:document-units="mm"
     showgrid="false"
     inkscape:zoom="0.70710678"
     inkscape:cx="534.57273"
     inkscape:cy="369.81685"
     inkscape:window-width="1920"
     inkscape:window-height="991"
     inkscape:window-x="-9"
     inkscape:window-y="-9"
     inkscape:window-maximized="1"
     inkscape:current-layer="g3977" />
  <defs
     id="defs2">
    <marker
       id="Arrow2Sstart"
       inkscape:isstock="true"
       inkscape:stockid="Arrow2Sstart"
       orient="auto"
       refX="0"
       refY="0"
       style="overflow:visible">
      <path
         d="M 8.72,4.03 -2.21,0.02 8.72,-4 c -1.75,2.37 -1.74,5.62 0,8.03 z"
         id="Arrow2SstartPath"
         style="fill:#000000;fill-opacity:1;stroke:none"
         transform="matrix(0.3,0,0,0.3,-0.69,0)" />
    </marker>
    <marker
       id="Arrow2Send"
       inkscape:isstock="true"
       inkscape:stockid="Arrow2Send"
       orient="auto"
       refX="0"
       refY="0"
       style="overflow:visible">
      <path
         d="M 8.72,4.03 -2.21,0.02 8.72,-4 c -1.75,2.37 -1.74,5.62 0,8.03 z"
         id="Arrow2SendPath"
         style="fill:#000000;fill-opacity:1;stroke:none"
         transform="matrix(-0.3,0,0,-0.3,0.69,0)" />
    </marker>
  </defs>
  <g
     inkscape:label="Camada 1"
     inkscape:groupmode="layer"
     id="layer1">
    <g
       id="g3457"
       transform="translate(17.960512,-26.940768)">
      <g
         id="g4219"
         transform="translate(30.356895,-43.148335)">
        <g
           id="g3977"
           transform="translate(0.83663119,28.381145)">
          <rect
             style="fill:#5f8dd3;stroke-width:0.981176;stroke-linejoin:bevel"
             id="rect1217-4"
             width="273.37"
             height="50"
             x="-49.154037"
             y="162.73596" />
          <rect
             style="fill:#87aade;stroke-width:0.981176;stroke-linejoin:bevel"
             id="rect1217"
             width="273.37"
             height="50"
             x="-49.154037"
             y="141.70799" />
          <rect
             style="fill:#afc6e9;stroke-width:0.981176;stroke-linejoin:bevel"
             id="rect1217-6"
             width="273.37"
             height="50"
             x="-49.154037"
             y="91.708054" />
          <rect
             style="fill:#d7e3f4;stroke-width:0.981176;stroke-linejoin:bevel"
             id="rect1217-6-9"
             width="273.37"
             height="50"
             x="-49.154037"
             y="41.708054" />
          <g
             id="path1344-4-5-1-9-4"
             fill="#aa8800"
             transform="matrix(0,1.00001,-0.999985,0,147.355,235.455)">
            <path
               d="m -44.0522,91.7083 v -50"
               id="path1952-7-7-4-0-0"
               color="#000000"
               stroke-width="0.613078"
               stroke-linejoin="bevel" />
            <path
               d="m -43.7461,91.709 v -50 h -0.6133 L -119.052,67.0153 -43.7461,42.3215 V 41.7082 H -193.744"
               id="path1954-9-1-2-8-7"
               color="#000000"
               stroke-linejoin="bevel" />
          </g>
          <path
             d="M 105.647,41.708 88.9806,91.7081 h 16.6664 z"
             id="rect398-2"
             stroke-width="0"
             stroke-linejoin="bevel"
             fill="#ffdd55" />
          <g
             id="path1344-4-5-1-9"
             fill="#008000"
             transform="matrix(0,1.00001,0.999985,0,63.9394,235.455)">
            <path
               d="m -44.0522,91.7083 v -50"
               id="path1952-7-7-4-0"
               color="#000000"
               stroke-width="0.613078"
               stroke-linejoin="bevel" />
            <path
               d="m -43.7461,91.709 v -50 h -0.6133 L -119.052,67.0153 -43.7461,42.3215 V 41.7082 H -193.744"
               id="path1954-9-1-2-8"
               color="#000000"
               stroke-linejoin="bevel" />
          </g>
          <path
             d="m 105.648,41.708 -100.00028,150 H 55.6478 Z"
             id="path290-3-6-6-8"
             stroke-width="0"
             stroke-linejoin="bevel"
             fill="#ff5555" />
          <path
             d="M 115.961,43.298 V 193.296"
             id="path1952-7-7-3"
             color="#000000"
             stroke-width="1.06187"
             stroke-linejoin="bevel"
             fill="#aa4400" />
          <path
             d="M 55.6478,191.402 H 105.647"
             id="path3770"
             color="#000000"
             stroke-width="0.613078"
             stroke-linejoin="bevel"
             fill="#d4aa00" />
          <path
             d="M 72.3139,141.708 H 107.424 V 91.7081 H 88.9806 Z"
             id="rect398-89"
             stroke-width="0"
             stroke-linejoin="bevel"
             fill="#ffcc00" />
          <path
             d="M 140.758,141.708 H 105.647 V 91.7081 h 18.444 z"
             id="rect398-89-5"
             stroke-width="0"
             stroke-linejoin="bevel"
             fill="#00d400" />
          <path
             d="m 38.9811,141.708 -33.33338,50 H 55.6478 l 16.6666,-50 z"
             id="path3659"
             stroke-width="0"
             stroke-linejoin="bevel"
             fill="#ff0000" />
          <path
             d="m 105.647,41.708 100,150 h -50 z"
             id="path290-3-0-2"
             stroke-width="0"
             stroke-linejoin="bevel"
             fill="#2c5aa0" />
          <path
             d="m 138.98,141.708 16.667,50 h 50 l -33.333,-50 z"
             id="rect398-8-3-0"
             stroke-width="0"
             stroke-linejoin="bevel"
             fill="#162d50" />
          <path
             d="M 105.648,41.708 72.3144,91.7081 h 16.6667 z"
             id="rect398-8-5"
             stroke-width="0"
             stroke-linejoin="bevel"
             fill="#ff8080" />
          <path
             d="m 105.647,41.708 33.334,50.0001 h -16.667 z"
             id="rect398-8-5-3"
             stroke-width="0"
             stroke-linejoin="bevel"
             fill="#87aade" />
          <path
             d="m 105.647,41.708 16.667,50.0001 h -16.667 z"
             id="rect398-2-9"
             stroke-width="0"
             stroke-linejoin="bevel"
             fill="#2aff2a" />
        </g>
        <g
           transform="rotate(-56.114876)"
           id="text388"
           style="font-size:10.2827px;font-family:Impact;-inkscape-font-specification:Impact;text-align:center;direction:rtl;text-anchor:middle;stroke:#000000;stroke-width:0.446692;stroke-linejoin:bevel" />
        <g
           transform="rotate(56.545208)"
           id="text388-1-4-3-7"
           style="font-size:10.2827px;font-family:Impact;-inkscape-font-specification:Impact;text-align:center;direction:rtl;text-anchor:middle;stroke:#000000;stroke-width:0.446692;stroke-linejoin:bevel" />
        <g
           transform="rotate(56.545208)"
           id="text388-1-4-3-6"
           style="font-size:10.2827px;font-family:Impact;-inkscape-font-specification:Impact;text-align:center;direction:rtl;text-anchor:middle;stroke:#000000;stroke-width:0.446692;stroke-linejoin:bevel" />
        <g
           aria-label="Produção e Manufatura"
           id="text3134"
           style="font-size:9.87777px;font-family:'Tw Cen MT Condensed';-inkscape-font-specification:'Tw Cen MT Condensed, ';text-align:center;direction:rtl;text-anchor:middle;stroke-width:0.613;stroke-linejoin:bevel">
          <path
             d="m 16.043099,220.83534 h 1.355299 q 1.321538,0 1.321538,1.74115 0,0.69453 -0.236334,1.09485 -0.23151,0.3955 -0.583598,0.50161 -0.347266,0.10129 -1.027327,0.11093 v 2.69613 h -0.829578 z m 0.829578,2.80706 q 0.525721,0 0.752408,-0.21221 0.226687,-0.21222 0.226687,-0.8537 0,-0.6463 -0.197748,-0.87781 -0.197748,-0.23151 -0.781347,-0.23151 z"
             id="path3846" />
          <path
             d="m 21.411242,223.38678 q -0.545013,0.0145 -0.776524,0.20739 -0.23151,0.19293 -0.23151,0.85852 v 2.52732 h -0.800639 v -4.21541 h 0.800639 v 0.62218 h 0.01929 q 0.347265,-0.68489 0.935687,-0.68489 l 0.05305,0.01 z"
             id="path3848" />
          <path
             d="m 23.316379,222.69225 q 0.602891,0 0.969449,0.4582 0.366558,0.45819 0.366558,1.77491 0,1.23472 -0.38585,1.67362 -0.381028,0.43891 -0.940511,0.43891 -0.699353,0 -1.036973,-0.52572 -0.337619,-0.52572 -0.337619,-1.61575 0,-1.33601 0.385851,-1.77009 0.38585,-0.43408 0.959803,-0.43408 z m 0.496783,2.43086 q 0,-1.07556 -0.101286,-1.42765 -0.101286,-0.35209 -0.405143,-0.35209 -0.289388,0 -0.395497,0.27492 -0.106109,0.27492 -0.106109,0.93086 0,1.27813 0.115755,1.5627 0.120579,0.28456 0.395497,0.28456 0.294211,0 0.395497,-0.28456 0.101286,-0.28939 0.101286,-0.98874 z"
             id="path3850" />
          <path
             d="m 27.440155,220.6183 h 0.78617 v 6.36171 h -0.776524 v -0.56431 h -0.01929 q -0.284565,0.62219 -0.810286,0.62219 -0.308681,0 -0.56913,-0.2074 -0.255625,-0.20739 -0.356911,-0.57877 -0.101286,-0.37138 -0.101286,-1.23955 0,-0.98874 0.08682,-1.41317 0.08682,-0.42926 0.332796,-0.6656 0.24598,-0.24115 0.627007,-0.24115 0.496783,0 0.781347,0.5643 h 0.01929 z m 0.0096,4.18648 q 0,-0.78135 -0.101286,-1.1045 -0.09646,-0.32797 -0.395496,-0.32797 -0.299034,0 -0.409966,0.34244 -0.110932,0.34244 -0.110932,1.13344 0,0.81993 0.101285,1.17202 0.106109,0.34726 0.40032,0.34726 0.289388,0 0.40032,-0.36173 0.115755,-0.36656 0.115755,-1.20096 z"
             id="path3852" />
          <path
             d="m 31.795441,225.64883 q 0,0.73794 -0.294211,1.06591 -0.294211,0.32315 -0.969449,0.32315 -0.675238,0 -0.979095,-0.31833 -0.303857,-0.32315 -0.303857,-1.03215 v -2.93728 h 0.781347 v 2.94693 q 0,0.69935 0.501605,0.69935 0.265272,0 0.371381,-0.17845 0.110932,-0.17846 0.110932,-0.59325 v -2.87458 h 0.781347 z"
             id="path3854" />
          <path
             d="m 34.723081,226.84979 q -0.390673,0.1881 -0.713823,0.1881 -0.646299,0 -0.945333,-0.53055 -0.299035,-0.53054 -0.299035,-1.6688 0,-1.2106 0.381028,-1.67845 0.381027,-0.46784 0.887456,-0.46784 0.250802,0 0.680061,0.14952 v 0.67041 q -0.279742,-0.1254 -0.443728,-0.1254 -0.342442,0 -0.496782,0.37138 -0.15434,0.36656 -0.15434,1.15755 0,1.43247 0.622183,1.43247 0.178456,0 0.482313,-0.14952 z m -0.728292,0.53536 q 0.390673,0.0482 0.602891,0.24116 0.217041,0.19293 0.217041,0.46784 0,0.41479 -0.390674,0.6656 -0.38585,0.25562 -1.041796,0.25562 -0.284565,0 -0.655946,-0.0579 l 0.05305,-0.5643 h 0.106109 l 0.270095,0.0193 q 0.858517,0 0.858517,-0.36656 0,-0.32315 -0.684884,-0.32315 h -0.07717 l 0.255626,-0.85369 h 0.641476 z"
             id="path3856" />
          <path
             d="m 38.099273,226.98001 h -0.78617 v -0.51125 h -0.02412 q -0.303857,0.56913 -0.78617,0.56913 -0.409966,0 -0.723469,-0.38103 -0.313504,-0.38585 -0.313504,-1.72186 0,-1.18649 0.236333,-1.70738 0.236334,-0.52573 0.810286,-0.52573 0.270096,0 0.434082,0.12541 0.16881,0.1254 0.342442,0.40032 h 0.02412 v -0.46302 h 0.78617 z m -1.292599,-0.63183 q 0.303857,0 0.405143,-0.36173 0.101286,-0.36174 0.101286,-1.2299 0,-0.76206 -0.09164,-1.07074 -0.09164,-0.3135 -0.38585,-0.3135 -0.294211,0 -0.409966,0.28939 -0.110932,0.28939 -0.110932,1.04662 0,0.89228 0.08682,1.26848 0.09164,0.37138 0.405143,0.37138 z m 1.688096,-5.35367 q -0.01929,0.53536 -0.270096,0.81993 -0.245979,0.28456 -0.670415,0.28456 -0.323149,0 -0.718646,-0.22668 -0.390674,-0.21704 -0.564306,-0.21704 -0.163987,0 -0.265272,0.11575 -0.101286,0.11576 -0.101286,0.29903 v 0.0386 h -0.641476 v -0.0579 q 0,-0.44855 0.279741,-0.74276 0.279742,-0.29421 0.709,-0.29421 0.221864,0 0.665592,0.20257 0.443728,0.20257 0.598068,0.20257 0.173633,0 0.24598,-0.10128 0.07235,-0.10129 0.101286,-0.32315 z"
             id="path3858" />
          <path
             d="m 40.424021,222.69225 q 0.602891,0 0.969449,0.4582 0.366558,0.45819 0.366558,1.77491 0,1.23472 -0.385851,1.67362 -0.381027,0.43891 -0.94051,0.43891 -0.699354,0 -1.036973,-0.52572 -0.337619,-0.52572 -0.337619,-1.61575 0,-1.33601 0.38585,-1.77009 0.385851,-0.43408 0.959803,-0.43408 z m 0.496782,2.43086 q 0,-1.07556 -0.101286,-1.42765 -0.101285,-0.35209 -0.405142,-0.35209 -0.289388,0 -0.395497,0.27492 -0.106109,0.27492 -0.106109,0.93086 0,1.27813 0.115755,1.5627 0.120578,0.28456 0.395497,0.28456 0.294211,0 0.395496,-0.28456 0.101286,-0.28939 0.101286,-0.98874 z"
             id="path3860" />
          <path
             d="m 47.132995,225.01217 h -1.774912 q 0,0.68489 0.09164,1.03698 0.09646,0.34726 0.448551,0.34726 0.270096,0 0.366558,-0.20257 0.09646,-0.20257 0.101286,-0.63665 h 0.718646 q -0.03376,1.4807 -1.254013,1.4807 -1.311892,0 -1.311892,-2.07395 0,-2.26205 1.360123,-2.26205 0.516075,0 0.882633,0.39068 0.371381,0.39067 0.371381,1.61575 z m -0.795817,-0.61253 q 0,-0.62701 -0.101286,-0.89711 -0.101285,-0.27491 -0.366557,-0.27491 -0.313504,0 -0.41479,0.28938 -0.09646,0.28457 -0.09646,0.88264 z"
             id="path3862" />
          <path
             d="m 19.438582,239.32722 h -0.766878 l -0.30868,-3.93085 h -0.01929 l -0.839225,3.93085 h -0.516075 l -0.795816,-3.93085 H 16.1685 l -0.32315,3.93085 h -0.771701 l 0.602892,-6.14466 h 0.713823 l 0.858517,4.30705 h 0.01929 l 0.877809,-4.30705 h 0.713824 z"
             id="path3864" />
          <path
             d="m 22.82442,239.32722 h -0.786171 v -0.51125 h -0.02412 q -0.303857,0.56913 -0.78617,0.56913 -0.409967,0 -0.72347,-0.38103 -0.313503,-0.38585 -0.313503,-1.72185 0,-1.18649 0.236333,-1.70739 0.236333,-0.52572 0.810286,-0.52572 0.270095,0 0.434081,0.1254 0.16881,0.1254 0.342443,0.40032 h 0.02412 v -0.46302 h 0.786171 z m -1.292599,-0.63183 q 0.303857,0 0.405143,-0.36173 0.101285,-0.36174 0.101285,-1.2299 0,-0.76205 -0.09164,-1.07073 -0.09164,-0.31351 -0.385851,-0.31351 -0.29421,0 -0.409966,0.28939 -0.110932,0.28939 -0.110932,1.04662 0,0.89228 0.08682,1.26848 0.09164,0.37138 0.405143,0.37138 z"
             id="path3866" />
          <path
             d="m 24.657209,235.09734 v 0.40514 h 0.01929 q 0.303857,-0.46302 0.819932,-0.46302 0.916394,0 0.916394,0.99839 v 3.28937 h -0.781347 v -3.06268 q 0,-0.62219 -0.491959,-0.62219 -0.226687,0 -0.361735,0.16881 -0.130224,0.16399 -0.130224,0.45338 v 3.06268 h -0.790994 v -4.22988 z"
             id="path3868" />
          <path
             d="m 30.02053,237.99604 q 0,0.73794 -0.294211,1.06591 -0.294211,0.32315 -0.969449,0.32315 -0.675239,0 -0.979096,-0.31833 -0.303857,-0.32314 -0.303857,-1.03214 v -2.93729 h 0.781347 v 2.94693 q 0,0.69936 0.501606,0.69936 0.265272,0 0.371381,-0.17846 0.110932,-0.17846 0.110932,-0.59325 v -2.87458 h 0.781347 z"
             id="path3870" />
          <path
             d="m 32.639489,233.73722 q -0.0627,-0.0579 -0.274918,-0.0579 -0.385851,0 -0.385851,0.58842 v 0.84405 h 0.651123 v 0.59807 H 31.97872 v 3.61734 h -0.781347 v -3.61734 h -0.424435 v -0.59807 h 0.424435 v -0.90193 q 0,-1.23472 0.940511,-1.23472 0.289388,0 0.501605,0.0579 z"
             id="path3872" />
          <path
             d="m 35.909572,239.32722 h -0.78617 v -0.51125 h -0.02412 q -0.303857,0.56913 -0.78617,0.56913 -0.409966,0 -0.723469,-0.38103 -0.313504,-0.38585 -0.313504,-1.72185 0,-1.18649 0.236334,-1.70739 0.236333,-0.52572 0.810285,-0.52572 0.270096,0 0.434082,0.1254 0.16881,0.1254 0.342442,0.40032 h 0.02412 v -0.46302 h 0.78617 z m -1.292599,-0.63183 q 0.303858,0 0.405143,-0.36173 0.101286,-0.36174 0.101286,-1.2299 0,-0.76205 -0.09164,-1.07073 -0.09164,-0.31351 -0.385851,-0.31351 -0.294211,0 -0.409966,0.28939 -0.110932,0.28939 -0.110932,1.04662 0,0.89228 0.08682,1.26848 0.09164,0.37138 0.405143,0.37138 z"
             id="path3874" />
          <path
             d="m 38.461007,235.73399 h -0.511252 v 3.59323 h -0.790993 v -3.59323 h -0.506429 v -0.62218 h 0.506429 v -1.14791 h 0.790993 v 1.14791 h 0.511252 z"
             id="path3876" />
          <path
             d="m 41.760029,237.99604 q 0,0.73794 -0.294211,1.06591 -0.294211,0.32315 -0.969449,0.32315 -0.675239,0 -0.979096,-0.31833 -0.303857,-0.32314 -0.303857,-1.03214 v -2.93729 h 0.781347 v 2.94693 q 0,0.69936 0.501606,0.69936 0.265272,0 0.371381,-0.17846 0.110932,-0.17846 0.110932,-0.59325 v -2.87458 h 0.781347 z"
             id="path3878" />
          <path
             d="m 44.620144,235.73399 q -0.545014,0.0145 -0.776524,0.2074 -0.23151,0.19292 -0.23151,0.85851 v 2.52732 h -0.80064 v -4.21541 h 0.80064 v 0.62218 h 0.01929 q 0.347266,-0.68488 0.935688,-0.68488 l 0.05305,0.01 z"
             id="path3880" />
          <path
             d="m 47.895052,239.32722 h -0.786171 v -0.51125 h -0.02411 q -0.303857,0.56913 -0.786171,0.56913 -0.409966,0 -0.723469,-0.38103 -0.313503,-0.38585 -0.313503,-1.72185 0,-1.18649 0.236333,-1.70739 0.236333,-0.52572 0.810286,-0.52572 0.270095,0 0.434081,0.1254 0.16881,0.1254 0.342443,0.40032 h 0.02411 v -0.46302 h 0.786171 z m -1.292599,-0.63183 q 0.303857,0 0.405143,-0.36173 0.101285,-0.36174 0.101285,-1.2299 0,-0.76205 -0.09164,-1.07073 -0.09164,-0.31351 -0.385851,-0.31351 -0.29421,0 -0.409966,0.28939 -0.110932,0.28939 -0.110932,1.04662 0,0.89228 0.08682,1.26848 0.09164,0.37138 0.405143,0.37138 z"
             id="path3882" />
        </g>
        <g
           aria-label="Vendas e Marketing"
           id="text3134-7"
           style="font-size:9.87777px;font-family:'Tw Cen MT Condensed';-inkscape-font-specification:'Tw Cen MT Condensed, ';text-align:center;direction:rtl;text-anchor:middle;stroke-width:0.613;stroke-linejoin:bevel">
          <path
             d="m 68.782293,220.8358 h 0.80064 l 0.7717,4.6495 0.829579,-4.6495 h 0.790993 l -1.292599,6.14467 h -0.655945 z"
             id="path3813" />
          <path
             d="m 74.70992,225.01263 h -1.774912 q 0,0.68489 0.09164,1.03697 0.09646,0.34727 0.448551,0.34727 0.270096,0 0.366558,-0.20257 0.09646,-0.20257 0.101286,-0.63665 h 0.718646 q -0.03376,1.4807 -1.254013,1.4807 -1.311892,0 -1.311892,-2.07395 0,-2.26205 1.360123,-2.26205 0.516075,0 0.882633,0.39068 0.371381,0.39067 0.371381,1.61574 z m -0.795817,-0.61254 q 0,-0.627 -0.101286,-0.8971 -0.101285,-0.27492 -0.366557,-0.27492 -0.313504,0 -0.41479,0.28939 -0.09646,0.28457 -0.09646,0.88263 z"
             id="path3815" />
          <path
             d="m 76.523417,222.75058 v 0.40515 h 0.01929 q 0.303857,-0.46302 0.819932,-0.46302 0.916395,0 0.916395,0.99838 v 3.28938 h -0.781347 v -3.06269 q 0,-0.62218 -0.491959,-0.62218 -0.226688,0 -0.361735,0.16881 -0.130225,0.16398 -0.130225,0.45337 v 3.06269 h -0.790993 v -4.22989 z"
             id="path3817" />
          <path
             d="m 81.139152,220.61876 h 0.78617 v 6.36171 h -0.776524 v -0.56431 h -0.01929 q -0.284565,0.62219 -0.810286,0.62219 -0.30868,0 -0.569129,-0.2074 -0.255626,-0.20739 -0.356912,-0.57877 -0.101286,-0.37138 -0.101286,-1.23955 0,-0.98874 0.08682,-1.41318 0.08682,-0.42925 0.332796,-0.66559 0.245979,-0.24115 0.627006,-0.24115 0.496783,0 0.781348,0.5643 h 0.01929 z m 0.0096,4.18648 q 0,-0.78135 -0.101285,-1.1045 -0.09646,-0.32797 -0.395497,-0.32797 -0.299034,0 -0.409966,0.34244 -0.110932,0.34244 -0.110932,1.13344 0,0.81993 0.101286,1.17202 0.106108,0.34726 0.400319,0.34726 0.289388,0 0.40032,-0.36173 0.115755,-0.36656 0.115755,-1.20096 z"
             id="path3819" />
          <path
             d="m 85.513731,226.98047 h -0.78617 v -0.51125 h -0.02412 q -0.303857,0.56913 -0.78617,0.56913 -0.409966,0 -0.72347,-0.38103 -0.313503,-0.38585 -0.313503,-1.72186 0,-1.18649 0.236333,-1.70739 0.236334,-0.52572 0.810286,-0.52572 0.270096,0 0.434082,0.1254 0.16881,0.12541 0.342442,0.40032 h 0.02412 v -0.46302 h 0.78617 z m -1.292599,-0.63183 q 0.303857,0 0.405143,-0.36174 0.101286,-0.36173 0.101286,-1.22989 0,-0.76206 -0.09164,-1.07074 -0.09164,-0.3135 -0.38585,-0.3135 -0.294211,0 -0.409966,0.28939 -0.110932,0.28938 -0.110932,1.04661 0,0.89228 0.08682,1.26849 0.09164,0.37138 0.405143,0.37138 z"
             id="path3821" />
          <path
             d="m 88.561949,223.4837 q -0.361734,-0.14952 -0.622184,-0.14952 -0.250802,0 -0.405142,0.1254 -0.149517,0.12541 -0.149517,0.34245 0,0.17363 0.125401,0.34244 0.130224,0.16881 0.525721,0.51607 0.40032,0.34245 0.564306,0.61736 0.16881,0.2701 0.16881,0.59807 0,0.49678 -0.337619,0.82476 -0.337619,0.32797 -0.858517,0.32797 -0.33762,0 -0.790994,-0.17846 v -0.65112 q 0.438905,0.17846 0.742762,0.17846 0.226687,0 0.352089,-0.12058 0.130224,-0.1254 0.130224,-0.3328 0,-0.19292 -0.168809,-0.40996 -0.16881,-0.21704 -0.588422,-0.55466 -0.602891,-0.48714 -0.602891,-1.11897 0,-0.49678 0.327972,-0.82475 0.332796,-0.3328 0.824756,-0.3328 0.303857,0 0.762054,0.15916 z"
             id="path3823" />
          <path
             d="m 94.060317,225.01263 h -1.774912 q 0,0.68489 0.09164,1.03697 0.09646,0.34727 0.448551,0.34727 0.270096,0 0.366558,-0.20257 0.09646,-0.20257 0.101286,-0.63665 h 0.718646 q -0.03376,1.4807 -1.254013,1.4807 -1.311892,0 -1.311892,-2.07395 0,-2.26205 1.360123,-2.26205 0.516075,0 0.882633,0.39068 0.371381,0.39067 0.371381,1.61574 z M 93.2645,224.40009 q 0,-0.627 -0.101285,-0.8971 -0.101286,-0.27492 -0.366558,-0.27492 -0.313504,0 -0.414789,0.28939 -0.09646,0.28457 -0.09646,0.88263 z"
             id="path3825" />
          <path
             d="m 71.533889,239.32768 h -0.766878 l -0.30868,-3.93085 h -0.01929 l -0.839224,3.93085 h -0.516075 l -0.795817,-3.93085 h -0.02411 l -0.32315,3.93085 h -0.771701 l 0.602891,-6.14467 h 0.713823 l 0.858518,4.30706 h 0.01929 l 0.87781,-4.30706 h 0.713823 z"
             style="font-style:italic"
             id="path3827" />
          <path
             d="m 74.919726,239.32768 h -0.78617 v -0.51125 h -0.02412 q -0.303857,0.56913 -0.78617,0.56913 -0.409966,0 -0.723469,-0.38103 -0.313504,-0.38585 -0.313504,-1.72186 0,-1.18649 0.236334,-1.70738 0.236333,-0.52572 0.810285,-0.52572 0.270096,0 0.434082,0.1254 0.16881,0.1254 0.342442,0.40032 h 0.02412 v -0.46302 h 0.78617 z m -1.292599,-0.63183 q 0.303857,0 0.405143,-0.36173 0.101286,-0.36174 0.101286,-1.2299 0,-0.76206 -0.09164,-1.07074 -0.09164,-0.3135 -0.38585,-0.3135 -0.294211,0 -0.409966,0.28939 -0.110932,0.28939 -0.110932,1.04662 0,0.89228 0.08682,1.26848 0.09164,0.37138 0.405143,0.37138 z"
             style="font-style:italic"
             id="path3829" />
          <path
             d="m 77.76055,235.73445 q -0.545014,0.0145 -0.776524,0.20739 -0.23151,0.19293 -0.23151,0.85852 v 2.52732 h -0.80064 v -4.21541 h 0.80064 v 0.62218 h 0.01929 q 0.347265,-0.68488 0.935687,-0.68488 l 0.05306,0.01 z"
             style="font-style:italic"
             id="path3831" />
          <path
             d="m 81.387543,239.32768 h -0.829578 l -1.176844,-2.2524 h -0.01929 v 2.2524 h -0.790993 v -6.35206 h 0.790993 v 3.9405 h 0.01929 l 1.046619,-1.80385 h 0.819932 l -1.065912,1.90513 z"
             style="font-style:italic"
             id="path3833" />
          <path
             d="M 84.498462,237.35984 H 82.72355 q 0,0.68489 0.09164,1.03698 0.09646,0.34726 0.448551,0.34726 0.270095,0 0.366558,-0.20257 0.09646,-0.20257 0.101285,-0.63665 h 0.718647 q -0.03376,1.4807 -1.254014,1.4807 -1.311891,0 -1.311891,-2.07395 0,-2.26204 1.360122,-2.26204 0.516075,0 0.882633,0.39067 0.371381,0.39067 0.371381,1.61575 z m -0.795816,-0.61253 q 0,-0.62701 -0.101286,-0.89711 -0.101286,-0.27491 -0.366558,-0.27491 -0.313503,0 -0.414789,0.28938 -0.09646,0.28457 -0.09646,0.88264 z"
             style="font-style:italic"
             id="path3835" />
          <path
             d="m 87.030606,235.73445 h -0.511251 v 3.59323 h -0.790994 v -3.59323 h -0.506428 v -0.62218 h 0.506428 v -1.14791 h 0.790994 v 1.14791 h 0.511251 z"
             style="font-style:italic"
             id="path3837" />
          <path
             d="m 87.773367,233.82449 q 0,-0.17363 0.125402,-0.30386 0.130224,-0.13022 0.30868,-0.13022 0.178456,0 0.303857,0.13022 0.130225,0.13023 0.130225,0.30386 0,0.17846 -0.130225,0.30868 -0.125401,0.1254 -0.303857,0.1254 -0.183279,0 -0.30868,-0.1254 -0.125402,-0.13022 -0.125402,-0.30868 z m 0.03859,1.28778 h 0.781347 v 4.21541 h -0.781347 z"
             style="font-style:italic"
             id="path3839" />
          <path
             d="m 90.430912,235.0978 v 0.40514 h 0.01929 q 0.303858,-0.46302 0.819932,-0.46302 0.916395,0 0.916395,0.99839 v 3.28937 h -0.781347 v -3.06269 q 0,-0.62218 -0.491959,-0.62218 -0.226687,0 -0.361735,0.16881 -0.130224,0.16399 -0.130224,0.45337 v 3.06269 H 89.63027 v -4.22988 z"
             style="font-style:italic"
             id="path3841" />
          <path
             d="m 95.799057,239.86305 q 0,0.65594 -0.303858,0.95498 -0.303857,0.29903 -0.969449,0.29903 -0.709,0 -1.012857,-0.27009 -0.303857,-0.2701 -0.299034,-0.99357 h 0.757231 q 0.03858,0.68971 0.535368,0.68971 0.511251,0 0.511251,-0.51607 v -1.26366 h -0.01929 q -0.23151,0.62218 -0.819932,0.62218 -0.405143,0 -0.684885,-0.39067 -0.279741,-0.39068 -0.279741,-1.86173 0,-1.32636 0.255626,-1.70257 0.255626,-0.38102 0.718646,-0.38102 0.318327,0 0.47749,0.11575 0.163986,0.11576 0.332796,0.37138 h 0.01929 v -0.42443 h 0.781348 z m -1.254014,-1.20578 q 0.274918,0 0.371381,-0.29904 0.101285,-0.30385 0.101285,-1.01768 0,-1.01768 -0.09164,-1.336 -0.08682,-0.32315 -0.381027,-0.32315 -0.270096,0 -0.385851,0.3135 -0.115755,0.30868 -0.115755,0.99356 0,0.90675 0.08199,1.28778 0.08682,0.38103 0.419613,0.38103 z"
             style="font-style:italic"
             id="path3843" />
        </g>
        <g
           aria-label="Recursos Humanos"
           id="text3134-7-6"
           style="font-size:9.87777px;font-family:'Tw Cen MT Condensed';-inkscape-font-specification:'Tw Cen MT Condensed, ';text-align:center;direction:rtl;text-anchor:middle;stroke-width:0.613;stroke-linejoin:bevel">
          <path
             d="m 122.00856,227.7377 h -0.85851 l -0.96463,-2.88423 h -0.0724 v 2.88423 h -0.82958 v -6.14467 h 1.14791 q 1.40353,0 1.40353,1.57234 0,0.71383 -0.20739,1.07556 -0.2074,0.36174 -0.67524,0.54502 z m -1.89549,-3.44854 q 0.48232,-0.01 0.69453,-0.22668 0.21704,-0.22187 0.21704,-0.80064 0,-0.55466 -0.19774,-0.791 -0.19293,-0.23633 -0.6656,-0.23633 h -0.0482 z"
             style="font-style:italic"
             id="path3782" />
          <path
             d="m 125.15324,225.76986 h -1.77491 q 0,0.68489 0.0916,1.03698 0.0965,0.34726 0.44855,0.34726 0.2701,0 0.36656,-0.20257 0.0965,-0.20257 0.10129,-0.63665 h 0.71864 q -0.0338,1.4807 -1.25401,1.4807 -1.31189,0 -1.31189,-2.07395 0,-2.26204 1.36012,-2.26204 0.51608,0 0.88263,0.39067 0.37138,0.39067 0.37138,1.61575 z m -0.79581,-0.61253 q 0,-0.62701 -0.10129,-0.89711 -0.10128,-0.27491 -0.36656,-0.27491 -0.3135,0 -0.41478,0.28938 -0.0965,0.28457 -0.0965,0.88264 z"
             style="font-style:italic"
             id="path3784" />
          <path
             d="m 128.0423,227.60748 q -0.39067,0.1881 -0.71382,0.1881 -0.6463,0 -0.94534,-0.53055 -0.29903,-0.53054 -0.29903,-1.6688 0,-1.2106 0.38103,-1.67845 0.38102,-0.46784 0.88745,-0.46784 0.2508,0 0.68006,0.14952 v 0.67041 q -0.27974,-0.1254 -0.44372,-0.1254 -0.34245,0 -0.49679,0.37138 -0.15434,0.36656 -0.15434,1.15755 0,1.43247 0.62219,1.43247 0.17845,0 0.48231,-0.14952 z"
             style="font-style:italic"
             id="path3786" />
          <path
             d="m 131.3992,226.40652 q 0,0.73794 -0.29421,1.06591 -0.29421,0.32315 -0.96945,0.32315 -0.67524,0 -0.9791,-0.31833 -0.30386,-0.32315 -0.30386,-1.03215 v -2.93728 h 0.78135 v 2.94693 q 0,0.69935 0.50161,0.69935 0.26527,0 0.37138,-0.17845 0.11093,-0.17846 0.11093,-0.59325 v -2.87458 h 0.78135 z"
             style="font-style:italic"
             id="path3788" />
          <path
             d="m 134.25931,224.14447 q -0.54501,0.0145 -0.77652,0.20739 -0.23151,0.19293 -0.23151,0.85852 v 2.52732 h -0.80064 v -4.21541 h 0.80064 v 0.62218 h 0.0193 q 0.34727,-0.68488 0.93569,-0.68488 l 0.0531,0.01 z"
             style="font-style:italic"
             id="path3790" />
          <path
             d="m 136.72876,224.24093 q -0.36174,-0.14951 -0.62219,-0.14951 -0.2508,0 -0.40514,0.1254 -0.14952,0.1254 -0.14952,0.34244 0,0.17363 0.1254,0.34244 0.13023,0.16881 0.52573,0.51608 0.40032,0.34244 0.5643,0.61736 0.16881,0.27009 0.16881,0.59806 0,0.49679 -0.33762,0.82476 -0.33762,0.32797 -0.85851,0.32797 -0.33762,0 -0.791,-0.17845 v -0.65113 q 0.43891,0.17846 0.74276,0.17846 0.22669,0 0.35209,-0.12058 0.13023,-0.1254 0.13023,-0.33279 0,-0.19293 -0.16881,-0.40997 -0.16881,-0.21704 -0.58842,-0.55466 -0.6029,-0.48714 -0.6029,-1.11897 0,-0.49678 0.32798,-0.82475 0.33279,-0.3328 0.82475,-0.3328 0.30386,0 0.76206,0.15917 z"
             style="font-style:italic"
             id="path3792" />
          <path
             d="m 139.12585,223.44994 q 0.60289,0 0.96945,0.4582 0.36656,0.45819 0.36656,1.77491 0,1.23472 -0.38585,1.67362 -0.38103,0.43891 -0.94051,0.43891 -0.69936,0 -1.03697,-0.52572 -0.33762,-0.52572 -0.33762,-1.61575 0,-1.33601 0.38585,-1.77009 0.38585,-0.43408 0.9598,-0.43408 z m 0.49678,2.43086 q 0,-1.07556 -0.10128,-1.42765 -0.10129,-0.35209 -0.40514,-0.35209 -0.28939,0 -0.3955,0.27492 -0.10611,0.27492 -0.10611,0.93086 0,1.27813 0.11576,1.5627 0.12057,0.28456 0.39549,0.28456 0.29421,0 0.3955,-0.28456 0.10128,-0.28939 0.10128,-0.98874 z"
             style="font-style:italic"
             id="path3794" />
          <path
             d="m 143.45702,224.24093 q -0.36173,-0.14951 -0.62218,-0.14951 -0.2508,0 -0.40514,0.1254 -0.14952,0.1254 -0.14952,0.34244 0,0.17363 0.1254,0.34244 0.13023,0.16881 0.52572,0.51608 0.40032,0.34244 0.56431,0.61736 0.16881,0.27009 0.16881,0.59806 0,0.49679 -0.33762,0.82476 -0.33762,0.32797 -0.85852,0.32797 -0.33762,0 -0.79099,-0.17845 v -0.65113 q 0.4389,0.17846 0.74276,0.17846 0.22669,0 0.35209,-0.12058 0.13022,-0.1254 0.13022,-0.33279 0,-0.19293 -0.16881,-0.40997 -0.16881,-0.21704 -0.58842,-0.55466 -0.60289,-0.48714 -0.60289,-1.11897 0,-0.49678 0.32797,-0.82475 0.3328,-0.3328 0.82476,-0.3328 0.30386,0 0.76205,0.15917 z"
             style="font-style:italic"
             id="path3796" />
          <path
             d="m 118.42015,233.94025 h 0.82958 v 2.39227 h 1.27813 v -2.39227 h 0.82958 v 6.14466 h -0.82958 v -3.05304 h -1.27813 v 3.05304 h -0.82958 z"
             style="font-style:italic"
             id="path3798" />
          <path
             d="m 124.9989,238.75373 q 0,0.73794 -0.29421,1.06591 -0.29421,0.32315 -0.96945,0.32315 -0.67523,0 -0.97909,-0.31832 -0.30386,-0.32315 -0.30386,-1.03215 v -2.93729 h 0.78135 v 2.94693 q 0,0.69936 0.5016,0.69936 0.26528,0 0.37139,-0.17846 0.11093,-0.17846 0.11093,-0.59325 v -2.87458 h 0.78134 z"
             style="font-style:italic"
             id="path3800" />
          <path
             d="m 130.43457,240.08491 h -0.79099 v -3.07233 q 0,-0.61254 -0.47267,-0.61254 -0.51125,0 -0.51125,0.73312 v 2.95175 h -0.78135 v -3.13021 q 0,-0.23633 -0.13504,-0.39549 -0.13023,-0.15917 -0.3328,-0.15917 -0.5209,0 -0.5209,0.67042 v 3.01445 h -0.79099 v -4.21541 h 0.80064 v 0.38103 q 0.3762,-0.45338 0.87781,-0.45338 0.5643,0 0.81993,0.52572 0.3955,-0.51607 0.95016,-0.51607 0.88745,0 0.88745,1.01768 z"
             style="font-style:italic"
             id="path3802" />
          <path
             d="m 134.07604,240.08491 h -0.78617 v -0.51125 h -0.0241 q -0.30386,0.56913 -0.78617,0.56913 -0.40997,0 -0.72347,-0.38103 -0.3135,-0.38585 -0.3135,-1.72185 0,-1.18649 0.23633,-1.70739 0.23633,-0.52572 0.81029,-0.52572 0.27009,0 0.43408,0.1254 0.16881,0.1254 0.34244,0.40032 h 0.0241 v -0.46302 h 0.78617 z m -1.2926,-0.63183 q 0.30385,0 0.40514,-0.36173 0.10129,-0.36174 0.10129,-1.2299 0,-0.76205 -0.0916,-1.07073 -0.0916,-0.31351 -0.38585,-0.31351 -0.29422,0 -0.40997,0.28939 -0.11093,0.28939 -0.11093,1.04662 0,0.89228 0.0868,1.26848 0.0916,0.37138 0.40515,0.37138 z"
             style="font-style:italic"
             id="path3804" />
          <path
             d="m 135.90882,235.85503 v 0.40514 h 0.0193 q 0.30385,-0.46302 0.81993,-0.46302 0.91639,0 0.91639,0.99839 v 3.28937 h -0.78134 v -3.06268 q 0,-0.62219 -0.49196,-0.62219 -0.22669,0 -0.36174,0.16881 -0.13022,0.16399 -0.13022,0.45338 v 3.06268 h -0.791 v -4.22988 z"
             style="font-style:italic"
             id="path3806" />
          <path
             d="m 140.00849,235.79715 q 0.60289,0 0.96944,0.4582 0.36656,0.4582 0.36656,1.77491 0,1.23472 -0.38585,1.67363 -0.38103,0.4389 -0.94051,0.4389 -0.69935,0 -1.03697,-0.52572 -0.33762,-0.52572 -0.33762,-1.61575 0,-1.336 0.38585,-1.77009 0.38585,-0.43408 0.9598,-0.43408 z m 0.49678,2.43086 q 0,-1.07556 -0.10129,-1.42765 -0.10128,-0.35209 -0.40514,-0.35209 -0.28939,0 -0.3955,0.27492 -0.10611,0.27492 -0.10611,0.93087 0,1.27813 0.11576,1.56269 0.12058,0.28457 0.3955,0.28457 0.29421,0 0.39549,-0.28457 0.10129,-0.28939 0.10129,-0.98874 z"
             style="font-style:italic"
             id="path3808" />
          <path
             d="m 144.33966,236.58815 q -0.36174,-0.14952 -0.62219,-0.14952 -0.2508,0 -0.40514,0.1254 -0.14952,0.1254 -0.14952,0.34244 0,0.17363 0.1254,0.34244 0.13023,0.16881 0.52572,0.51608 0.40032,0.34244 0.56431,0.61736 0.16881,0.27009 0.16881,0.59807 0,0.49678 -0.33762,0.82475 -0.33762,0.32798 -0.85852,0.32798 -0.33762,0 -0.79099,-0.17846 v -0.65112 q 0.43891,0.17845 0.74276,0.17845 0.22669,0 0.35209,-0.12058 0.13023,-0.1254 0.13023,-0.33279 0,-0.19293 -0.16881,-0.40997 -0.16881,-0.21704 -0.58843,-0.55466 -0.60289,-0.48713 -0.60289,-1.11896 0,-0.49679 0.32798,-0.82476 0.33279,-0.33279 0.82475,-0.33279 0.30386,0 0.76206,0.15916 z"
             style="font-style:italic"
             id="path3810" />
        </g>
        <g
           aria-label="Finanças e Contabilidade"
           id="text3134-7-6-3"
           style="font-size:9.87777px;font-family:'Tw Cen MT Condensed';-inkscape-font-specification:'Tw Cen MT Condensed, ';text-align:center;direction:rtl;text-anchor:middle;stroke-width:0.613;stroke-linejoin:bevel">
          <path
             d="m 168.93384,222.29239 h -1.41317 v 1.93407 h 1.26366 v 0.69936 h -1.26366 v 2.80706 h -0.81994 v -6.14467 h 2.23311 z"
             style="font-style:italic"
             id="path3737" />
          <path
             d="m 169.80683,222.22969 q 0,-0.17363 0.1254,-0.30386 0.13023,-0.13022 0.30868,-0.13022 0.17846,0 0.30386,0.13022 0.13022,0.13023 0.13022,0.30386 0,0.17845 -0.13022,0.30868 -0.1254,0.1254 -0.30386,0.1254 -0.18328,0 -0.30868,-0.1254 -0.1254,-0.13023 -0.1254,-0.30868 z m 0.0386,1.28777 h 0.78135 v 4.21542 h -0.78135 z"
             style="font-style:italic"
             id="path3739" />
          <path
             d="m 172.46437,223.50299 v 0.40515 h 0.0193 q 0.30385,-0.46302 0.81993,-0.46302 0.91639,0 0.91639,0.99838 v 3.28938 h -0.78134 v -3.06269 q 0,-0.62218 -0.49196,-0.62218 -0.22669,0 -0.36174,0.16881 -0.13022,0.16398 -0.13022,0.45337 v 3.06269 h -0.791 v -4.22989 z"
             style="font-style:italic"
             id="path3741" />
          <path
             d="m 177.84699,227.73288 h -0.78617 v -0.51125 h -0.0241 q -0.30386,0.56913 -0.78617,0.56913 -0.40996,0 -0.72347,-0.38103 -0.3135,-0.38585 -0.3135,-1.72186 0,-1.18649 0.23633,-1.70739 0.23634,-0.52572 0.81029,-0.52572 0.27009,0 0.43408,0.1254 0.16881,0.12541 0.34244,0.40032 h 0.0241 v -0.46302 h 0.78617 z m -1.2926,-0.63183 q 0.30386,0 0.40514,-0.36174 0.10129,-0.36173 0.10129,-1.22989 0,-0.76206 -0.0916,-1.07074 -0.0916,-0.3135 -0.38585,-0.3135 -0.29421,0 -0.40997,0.28939 -0.11093,0.28938 -0.11093,1.04662 0,0.89227 0.0868,1.26848 0.0916,0.37138 0.40514,0.37138 z"
             style="font-style:italic"
             id="path3743" />
          <path
             d="m 179.67978,223.50299 v 0.40515 h 0.0193 q 0.30386,-0.46302 0.81993,-0.46302 0.9164,0 0.9164,0.99838 v 3.28938 h -0.78135 v -3.06269 q 0,-0.62218 -0.49196,-0.62218 -0.22669,0 -0.36173,0.16881 -0.13023,0.16398 -0.13023,0.45337 v 3.06269 h -0.79099 v -4.22989 z"
             style="font-style:italic"
             id="path3745" />
          <path
             d="m 184.36304,227.60266 q -0.39068,0.1881 -0.71383,0.1881 -0.6463,0 -0.94533,-0.53055 -0.29903,-0.53054 -0.29903,-1.6688 0,-1.21061 0.38102,-1.67845 0.38103,-0.46784 0.88746,-0.46784 0.2508,0 0.68006,0.14951 v 0.67042 q -0.27974,-0.1254 -0.44373,-0.1254 -0.34244,0 -0.49678,0.37138 -0.15434,0.36656 -0.15434,1.15755 0,1.43247 0.62218,1.43247 0.17846,0 0.48232,-0.14952 z m -0.7283,0.53536 q 0.39068,0.0482 0.6029,0.24116 0.21704,0.19292 0.21704,0.46784 0,0.41479 -0.39068,0.66559 -0.38585,0.25563 -1.04179,0.25563 -0.28457,0 -0.65595,-0.0579 l 0.0531,-0.5643 h 0.1061 l 0.2701,0.0193 q 0.85852,0 0.85852,-0.36656 0,-0.32315 -0.68489,-0.32315 h -0.0772 l 0.25563,-0.85369 h 0.64147 z"
             style="font-style:italic"
             id="path3747" />
          <path
             d="m 187.73923,227.73288 h -0.78617 v -0.51125 h -0.0241 q -0.30385,0.56913 -0.78617,0.56913 -0.40996,0 -0.72347,-0.38103 -0.3135,-0.38585 -0.3135,-1.72186 0,-1.18649 0.23633,-1.70739 0.23634,-0.52572 0.81029,-0.52572 0.27009,0 0.43408,0.1254 0.16881,0.12541 0.34244,0.40032 h 0.0241 v -0.46302 h 0.78617 z m -1.2926,-0.63183 q 0.30386,0 0.40514,-0.36174 0.10129,-0.36173 0.10129,-1.22989 0,-0.76206 -0.0916,-1.07074 -0.0916,-0.3135 -0.38585,-0.3135 -0.29421,0 -0.40997,0.28939 -0.11093,0.28938 -0.11093,1.04662 0,0.89227 0.0868,1.26848 0.0916,0.37138 0.40514,0.37138 z"
             style="font-style:italic"
             id="path3749" />
          <path
             d="m 190.78745,224.23611 q -0.36174,-0.14952 -0.62219,-0.14952 -0.2508,0 -0.40514,0.1254 -0.14952,0.12541 -0.14952,0.34245 0,0.17363 0.1254,0.34244 0.13023,0.16881 0.52572,0.51607 0.40032,0.34245 0.56431,0.61736 0.16881,0.2701 0.16881,0.59807 0,0.49679 -0.33762,0.82476 -0.33762,0.32797 -0.85852,0.32797 -0.33762,0 -0.79099,-0.17845 v -0.65113 q 0.43891,0.17846 0.74276,0.17846 0.22669,0 0.35209,-0.12058 0.13023,-0.1254 0.13023,-0.3328 0,-0.19292 -0.16881,-0.40996 -0.16881,-0.21704 -0.58843,-0.55466 -0.60289,-0.48714 -0.60289,-1.11897 0,-0.49678 0.32798,-0.82475 0.33279,-0.3328 0.82475,-0.3328 0.30386,0 0.76206,0.15916 z"
             style="font-style:italic"
             id="path3751" />
          <path
             d="m 196.28581,225.76504 h -1.77491 q 0,0.68489 0.0916,1.03698 0.0965,0.34726 0.44855,0.34726 0.2701,0 0.36656,-0.20257 0.0965,-0.20257 0.10129,-0.63665 h 0.71864 q -0.0338,1.4807 -1.25401,1.4807 -1.31189,0 -1.31189,-2.07395 0,-2.26205 1.36012,-2.26205 0.51608,0 0.88263,0.39068 0.37138,0.39067 0.37138,1.61575 z M 195.49,225.15251 q 0,-0.62701 -0.10129,-0.89711 -0.10128,-0.27492 -0.36656,-0.27492 -0.3135,0 -0.41478,0.28939 -0.0965,0.28457 -0.0965,0.88264 z"
             style="font-style:italic"
             id="path3753" />
          <path
             d="m 164.44351,239.96916 q -0.37138,0.17846 -0.74276,0.17846 -0.74276,0 -1.28778,-0.57396 -0.54019,-0.57395 -0.54019,-2.39709 0,-1.97748 0.54019,-2.66237 0.54502,-0.68488 1.31672,-0.68488 0.28938,0 0.71382,0.0965 v 0.75241 q -0.27974,-0.11094 -0.52572,-0.11094 -0.48231,0 -0.82476,0.49196 -0.34244,0.48714 -0.34244,1.92926 0,0.85851 0.0724,1.34565 0.0772,0.48231 0.34726,0.7717 0.2701,0.28457 0.68006,0.28457 0.24116,0 0.59325,-0.14952 z"
             style="font-style:italic"
             id="path3755" />
          <path
             d="m 166.70556,235.79233 q 0.60289,0 0.96945,0.4582 0.36655,0.45819 0.36655,1.77491 0,1.23472 -0.38585,1.67363 -0.38102,0.4389 -0.94051,0.4389 -0.69935,0 -1.03697,-0.52572 -0.33762,-0.52572 -0.33762,-1.61575 0,-1.33601 0.38585,-1.77009 0.38585,-0.43408 0.9598,-0.43408 z m 0.49678,2.43086 q 0,-1.07556 -0.10129,-1.42765 -0.10128,-0.35209 -0.40514,-0.35209 -0.28939,0 -0.3955,0.27492 -0.1061,0.27492 -0.1061,0.93087 0,1.27812 0.11575,1.56269 0.12058,0.28456 0.3955,0.28456 0.29421,0 0.39549,-0.28456 0.10129,-0.28939 0.10129,-0.98874 z"
             style="font-style:italic"
             id="path3757" />
          <path
             d="m 169.8213,235.85021 v 0.40514 h 0.0193 q 0.30386,-0.46302 0.81993,-0.46302 0.9164,0 0.9164,0.99839 v 3.28937 h -0.78135 v -3.06268 q 0,-0.62219 -0.49196,-0.62219 -0.22668,0 -0.36173,0.16881 -0.13023,0.16399 -0.13023,0.45338 v 3.06268 h -0.79099 v -4.22988 z"
             style="font-style:italic"
             id="path3759" />
          <path
             d="m 174.14765,236.48686 h -0.51125 v 3.59323 h -0.791 v -3.59323 h -0.50643 v -0.62218 h 0.50643 v -1.14791 h 0.791 v 1.14791 h 0.51125 z"
             style="font-style:italic"
             id="path3761" />
          <path
             d="m 177.46596,240.08009 h -0.78617 v -0.51125 h -0.0241 q -0.30385,0.56913 -0.78617,0.56913 -0.40996,0 -0.72347,-0.38103 -0.3135,-0.38585 -0.3135,-1.72185 0,-1.18649 0.23633,-1.70739 0.23634,-0.52572 0.81029,-0.52572 0.2701,0 0.43408,0.1254 0.16881,0.1254 0.34244,0.40032 h 0.0241 v -0.46302 h 0.78617 z m -1.2926,-0.63183 q 0.30386,0 0.40514,-0.36173 0.10129,-0.36174 0.10129,-1.2299 0,-0.76205 -0.0916,-1.07074 -0.0916,-0.3135 -0.38585,-0.3135 -0.29421,0 -0.40997,0.28939 -0.11093,0.28939 -0.11093,1.04662 0,0.89228 0.0868,1.26848 0.0916,0.37138 0.40514,0.37138 z"
             style="font-style:italic"
             id="path3763" />
          <path
             d="m 178.52705,233.71838 h 0.79099 v 2.70578 h 0.0193 q 0.22186,-0.63183 0.81993,-0.63183 0.44373,0 0.72829,0.41479 0.28939,0.41479 0.28939,1.60128 0,1.44694 -0.25563,1.88584 -0.25562,0.43408 -0.79099,0.43408 -0.51125,0 -0.80064,-0.63183 h -0.0193 v 0.5836 h -0.78135 z m 1.80867,4.40352 q 0,-0.8971 -0.10611,-1.27813 -0.10128,-0.38102 -0.41961,-0.38102 -0.27009,0 -0.38585,0.30868 -0.11575,0.30868 -0.11575,0.98874 0,0.92121 0.10611,1.31189 0.11093,0.38585 0.41478,0.38585 0.27492,0 0.39068,-0.3135 0.11575,-0.31833 0.11575,-1.02251 z"
             style="font-style:italic"
             id="path3765" />
          <path
             d="m 182.10581,234.5769 q 0,-0.17363 0.1254,-0.30386 0.13023,-0.13022 0.30868,-0.13022 0.17846,0 0.30386,0.13022 0.13022,0.13023 0.13022,0.30386 0,0.17846 -0.13022,0.30868 -0.1254,0.1254 -0.30386,0.1254 -0.18328,0 -0.30868,-0.1254 -0.1254,-0.13022 -0.1254,-0.30868 z m 0.0386,1.28778 h 0.78134 v 4.21541 h -0.78134 z"
             style="font-style:italic"
             id="path3767" />
          <path
             d="m 184.79229,240.08009 h -0.79099 v -6.36171 h 0.79099 z"
             style="font-style:italic"
             id="path3769" />
          <path
             d="m 185.81962,234.5769 q 0,-0.17363 0.1254,-0.30386 0.13023,-0.13022 0.30868,-0.13022 0.17846,0 0.30386,0.13022 0.13022,0.13023 0.13022,0.30386 0,0.17846 -0.13022,0.30868 -0.1254,0.1254 -0.30386,0.1254 -0.18328,0 -0.30868,-0.1254 -0.1254,-0.13022 -0.1254,-0.30868 z m 0.0386,1.28778 h 0.78134 v 4.21541 h -0.78134 z"
             style="font-style:italic"
             id="path3771" />
          <path
             d="m 189.4852,233.71838 h 0.78617 v 6.36171 h -0.77652 v -0.5643 h -0.0193 q -0.28456,0.62218 -0.81028,0.62218 -0.30868,0 -0.56913,-0.20739 -0.25563,-0.2074 -0.35691,-0.57878 -0.10129,-0.37138 -0.10129,-1.23954 0,-0.98875 0.0868,-1.41318 0.0868,-0.42926 0.33279,-0.66559 0.24598,-0.24116 0.62701,-0.24116 0.49678,0 0.78135,0.56431 h 0.0193 z m 0.01,4.18648 q 0,-0.78135 -0.10129,-1.1045 -0.0965,-0.32797 -0.3955,-0.32797 -0.29903,0 -0.40996,0.34244 -0.11093,0.34245 -0.11093,1.13344 0,0.81993 0.10128,1.17202 0.10611,0.34727 0.40032,0.34727 0.28939,0 0.40032,-0.36174 0.11576,-0.36656 0.11576,-1.20096 z"
             style="font-style:italic"
             id="path3773" />
          <path
             d="m 193.85978,240.08009 h -0.78617 v -0.51125 h -0.0241 q -0.30385,0.56913 -0.78617,0.56913 -0.40996,0 -0.72347,-0.38103 -0.3135,-0.38585 -0.3135,-1.72185 0,-1.18649 0.23633,-1.70739 0.23634,-0.52572 0.81029,-0.52572 0.2701,0 0.43408,0.1254 0.16881,0.1254 0.34244,0.40032 h 0.0241 v -0.46302 h 0.78617 z m -1.2926,-0.63183 q 0.30386,0 0.40514,-0.36173 0.10129,-0.36174 0.10129,-1.2299 0,-0.76205 -0.0916,-1.07074 -0.0916,-0.3135 -0.38585,-0.3135 -0.29421,0 -0.40997,0.28939 -0.11093,0.28939 -0.11093,1.04662 0,0.89228 0.0868,1.26848 0.0916,0.37138 0.40514,0.37138 z"
             style="font-style:italic"
             id="path3775" />
          <path
             d="m 196.7006,233.71838 h 0.78617 v 6.36171 h -0.77652 v -0.5643 h -0.0193 q -0.28457,0.62218 -0.81029,0.62218 -0.30868,0 -0.56913,-0.20739 -0.25562,-0.2074 -0.35691,-0.57878 -0.10128,-0.37138 -0.10128,-1.23954 0,-0.98875 0.0868,-1.41318 0.0868,-0.42926 0.3328,-0.66559 0.24598,-0.24116 0.62701,-0.24116 0.49678,0 0.78134,0.56431 h 0.0193 z m 0.01,4.18648 q 0,-0.78135 -0.10128,-1.1045 -0.0965,-0.32797 -0.3955,-0.32797 -0.29904,0 -0.40997,0.34244 -0.11093,0.34245 -0.11093,1.13344 0,0.81993 0.10129,1.17202 0.10611,0.34727 0.40032,0.34727 0.28938,0 0.40032,-0.36174 0.11575,-0.36656 0.11575,-1.20096 z"
             style="font-style:italic"
             id="path3777" />
          <path
             d="m 201.09448,238.11226 h -1.77492 q 0,0.68488 0.0916,1.03697 0.0965,0.34726 0.44855,0.34726 0.2701,0 0.36656,-0.20257 0.0965,-0.20257 0.10129,-0.63665 h 0.71864 q -0.0338,1.4807 -1.25401,1.4807 -1.31189,0 -1.31189,-2.07395 0,-2.26204 1.36012,-2.26204 0.51608,0 0.88263,0.39067 0.37139,0.39067 0.37139,1.61575 z m -0.79582,-0.61254 q 0,-0.62701 -0.10129,-0.8971 -0.10128,-0.27492 -0.36655,-0.27492 -0.31351,0 -0.41479,0.28939 -0.0965,0.28456 -0.0965,0.88263 z"
             style="font-style:italic"
             id="path3779" />
        </g>
        <g
           aria-label="Nível Operacional"
           id="text3463"
           style="font-size:9.87777px;font-family:'Tw Cen MT Condensed';-inkscape-font-specification:'Tw Cen MT Condensed, ';text-align:center;direction:rtl;text-anchor:middle;stroke-width:0.613;stroke-linejoin:bevel">
          <path
             d="m -25.845577,191.48506 h -1.037166 l -3.773308,-5.85752 h -0.03951 q 0.01975,0.34573 0.04939,0.85937 0.02963,0.51364 0.02963,1.05692 v 3.94123 h -0.819855 v -7.05273 h 1.027288 l 3.76343,5.83777 h 0.03951 q -0.0099,-0.15805 -0.02963,-0.47414 -0.0099,-0.31609 -0.02963,-0.69144 -0.0099,-0.37536 -0.0099,-0.69144 v -3.98075 h 0.829733 z"
             style="font-family:sans-serif;-inkscape-font-specification:sans-serif"
             id="path3704" />
          <path
             d="m -23.178577,191.48506 h -0.869244 v -5.29448 h 0.869244 z m 1.027288,-7.46759 q -0.118533,0.1778 -0.365477,0.46425 -0.246945,0.27658 -0.5334,0.56304 -0.276578,0.27657 -0.513644,0.45437 h -0.572911 v -0.11853 q 0.148167,-0.18768 0.316089,-0.4445 0.1778,-0.25682 0.345722,-0.52352 0.167922,-0.27658 0.276578,-0.49389 h 1.047043 z"
             style="font-family:sans-serif;-inkscape-font-specification:sans-serif"
             id="path3706" />
          <path
             d="m -20.333785,191.48506 -2.005187,-5.29448 h 0.92851 l 1.126066,3.12137 q 0.07902,0.21731 0.167922,0.48401 0.0889,0.2667 0.158044,0.51365 0.06914,0.23706 0.09878,0.40499 h 0.03951 q 0.03951,-0.16793 0.108656,-0.41487 0.07902,-0.24695 0.167922,-0.51364 0.09878,-0.2667 0.167922,-0.47414 l 1.126066,-3.12137 h 0.92851 l -2.015065,5.29448 z"
             style="font-family:sans-serif;-inkscape-font-specification:sans-serif"
             id="path3708" />
          <path
             d="m -14.436762,186.0918 q 0.681566,0 1.165577,0.29633 0.493889,0.29634 0.750711,0.83961 0.266699,0.5334 0.266699,1.25448 v 0.52352 h -3.625141 q 0.01975,0.89888 0.454377,1.37301 0.4445,0.46426 1.234721,0.46426 0.503767,0 0.889,-0.0889 0.395111,-0.0988 0.809977,-0.27658 v 0.76059 q -0.404989,0.1778 -0.800099,0.25682 -0.395111,0.0889 -0.938389,0.0889 -0.75071,0 -1.333499,-0.30621 -0.57291,-0.30621 -0.898877,-0.90876 -0.316088,-0.61242 -0.316088,-1.49154 0,-0.86924 0.286455,-1.49154 0.296333,-0.6223 0.819855,-0.95815 0.5334,-0.33584 1.234721,-0.33584 z m -0.0099,0.7112 q -0.622299,0 -0.987777,0.40499 -0.355599,0.39511 -0.424744,1.10631 h 2.696632 q -0.0099,-0.67169 -0.316089,-1.08656 -0.306211,-0.42474 -0.968022,-0.42474 z"
             style="font-family:sans-serif;-inkscape-font-specification:sans-serif"
             id="path3710" />
          <path
             d="m -10.041161,191.48506 h -0.869244 v -7.5071 h 0.869244 z"
             style="font-family:sans-serif;-inkscape-font-specification:sans-serif"
             id="path3712" />
          <path
             d="m -41.808057,200.35271 q 0,1.09643 -0.375356,1.91629 -0.365477,0.80997 -1.086555,1.26435 -0.721077,0.45438 -1.787876,0.45438 -1.096432,0 -1.827387,-0.45438 -0.721078,-0.45438 -1.076677,-1.27423 -0.3556,-0.81986 -0.3556,-1.91629 0,-1.08655 0.3556,-1.89653 0.355599,-0.80998 1.076677,-1.26436 0.730955,-0.45437 1.837265,-0.45437 1.056921,0 1.777998,0.45437 0.721078,0.4445 1.086555,1.26436 0.375356,0.80998 0.375356,1.90641 z m -5.571063,0 q 0,1.3335 0.563033,2.10396 0.563033,0.76059 1.758243,0.76059 1.205088,0 1.758243,-0.76059 0.553155,-0.77046 0.553155,-2.10396 0,-1.3335 -0.553155,-2.08421 -0.553155,-0.76059 -1.748365,-0.76059 -1.19521,0 -1.768121,0.76059 -0.563033,0.75071 -0.563033,2.08421 z"
             style="font-family:sans-serif;-inkscape-font-specification:sans-serif"
             id="path3714" />
          <path
             d="m -37.84707,198.49569 q 0.977899,0 1.570565,0.68156 0.602544,0.68157 0.602544,2.05458 0,1.35325 -0.602544,2.05458 -0.592666,0.70132 -1.580443,0.70132 -0.612422,0 -1.01741,-0.22719 -0.395111,-0.23707 -0.6223,-0.54328 h -0.05927 q 0.01976,0.16792 0.03951,0.42475 0.01976,0.25682 0.01976,0.4445 v 2.1731 h -0.869244 v -7.66515 h 0.7112 l 0.118533,0.72108 h 0.03951 q 0.237067,-0.34572 0.6223,-0.58279 0.385233,-0.23706 1.027288,-0.23706 z m -0.158045,0.73095 q -0.809977,0 -1.145821,0.45438 -0.325966,0.45438 -0.345722,1.38289 v 0.16792 q 0,0.9779 0.316089,1.5113 0.325966,0.52352 1.19521,0.52352 0.484011,0 0.790222,-0.2667 0.316088,-0.2667 0.464255,-0.72108 0.158044,-0.46425 0.158044,-1.05692 0,-0.90875 -0.3556,-1.45203 -0.345722,-0.54328 -1.076677,-0.54328 z"
             style="font-family:sans-serif;-inkscape-font-specification:sans-serif"
             id="path3716" />
          <path
             d="m -32.246377,198.49569 q 0.681567,0 1.165577,0.29633 0.493889,0.29633 0.750711,0.83961 0.2667,0.5334 0.2667,1.25448 v 0.52352 h -3.625142 q 0.01976,0.89888 0.454377,1.37301 0.4445,0.46425 1.234722,0.46425 0.503766,0 0.888999,-0.0889 0.395111,-0.0988 0.809977,-0.27657 v 0.76059 q -0.404988,0.1778 -0.800099,0.25682 -0.395111,0.0889 -0.938388,0.0889 -0.750711,0 -1.333499,-0.30621 -0.572911,-0.30621 -0.898877,-0.90876 -0.316089,-0.61242 -0.316089,-1.49154 0,-0.86925 0.286455,-1.49154 0.296333,-0.6223 0.819855,-0.95815 0.5334,-0.33584 1.234721,-0.33584 z m -0.0099,0.7112 q -0.6223,0 -0.987777,0.40499 -0.3556,0.39511 -0.424744,1.10631 h 2.696631 q -0.0099,-0.67169 -0.316089,-1.08656 -0.306211,-0.42474 -0.968021,-0.42474 z"
             style="font-family:sans-serif;-inkscape-font-specification:sans-serif"
             id="path3718" />
          <path
             d="m -26.250579,198.49569 q 0.148167,0 0.316089,0.0198 0.1778,0.01 0.306211,0.0395 l -0.108656,0.8001 q -0.128411,-0.0296 -0.286455,-0.0494 -0.148167,-0.0197 -0.286456,-0.0197 -0.404988,0 -0.760588,0.22719 -0.3556,0.21731 -0.572911,0.6223 -0.207433,0.39511 -0.207433,0.92851 v 2.82504 h -0.869243 v -5.29449 h 0.711199 l 0.09878,0.96803 h 0.03951 q 0.256822,-0.43463 0.66181,-0.75071 0.404989,-0.31609 0.958144,-0.31609 z"
             style="font-family:sans-serif;-inkscape-font-specification:sans-serif"
             id="path3720" />
          <path
             d="m -22.832872,198.50557 q 0.968021,0 1.432276,0.42474 0.464256,0.42474 0.464256,1.35325 v 3.60539 h -0.632178 l -0.167922,-0.75071 h -0.03951 q -0.345722,0.43462 -0.730955,0.64205 -0.375355,0.20744 -1.047044,0.20744 -0.721077,0 -1.19521,-0.37536 -0.474133,-0.38523 -0.474133,-1.19521 0,-0.79022 0.6223,-1.21496 0.622299,-0.43463 1.916287,-0.47414 l 0.898877,-0.0296 v -0.31609 q 0,-0.66181 -0.286455,-0.91863 -0.286455,-0.25682 -0.809977,-0.25682 -0.414866,0 -0.790222,0.12841 -0.375355,0.11853 -0.701321,0.27658 l -0.2667,-0.65194 q 0.345722,-0.18768 0.819855,-0.31609 0.474133,-0.13828 0.987777,-0.13828 z m 0.256822,2.82504 q -0.987777,0.0395 -1.37301,0.31609 -0.375356,0.27657 -0.375356,0.78034 0,0.4445 0.2667,0.65193 0.276578,0.20744 0.701322,0.20744 0.671688,0 1.116188,-0.36548 0.4445,-0.37536 0.4445,-1.14582 v -0.47414 z"
             style="font-family:sans-serif;-inkscape-font-specification:sans-serif"
             id="path3722" />
          <path
             d="m -17.172902,203.98773 q -0.701322,0 -1.254477,-0.28646 -0.543277,-0.28645 -0.859366,-0.889 -0.306211,-0.60254 -0.306211,-1.54093 0,-0.9779 0.325967,-1.59032 0.325966,-0.61242 0.879121,-0.89888 0.563033,-0.28645 1.274233,-0.28645 0.404988,0 0.780344,0.0889 0.375355,0.079 0.612421,0.19755 l -0.266699,0.72108 q -0.237067,-0.0889 -0.553156,-0.16792 -0.316088,-0.079 -0.592666,-0.079 -1.560688,0 -1.560688,2.00518 0,0.95815 0.375356,1.47179 0.385233,0.50377 1.135943,0.50377 0.434622,0 0.760589,-0.0889 0.335844,-0.0889 0.612421,-0.21731 v 0.77046 q -0.266699,0.13829 -0.592666,0.20744 -0.316088,0.079 -0.770466,0.079 z"
             style="font-family:sans-serif;-inkscape-font-specification:sans-serif"
             id="path3724" />
          <path
             d="m -14.110799,196.60903 q 0.197555,0 0.345722,0.13829 0.158044,0.12841 0.158044,0.41487 0,0.27658 -0.158044,0.41486 -0.148167,0.13829 -0.345722,0.13829 -0.217311,0 -0.365478,-0.13829 -0.148166,-0.13828 -0.148166,-0.41486 0,-0.28646 0.148166,-0.41487 0.148167,-0.13829 0.365478,-0.13829 z m 0.424744,1.98543 v 5.29449 h -0.869244 v -5.29449 z"
             style="font-family:sans-serif;-inkscape-font-specification:sans-serif"
             id="path3726" />
          <path
             d="m -7.4037961,201.23183 q 0,1.31374 -0.6716884,2.03482 -0.6618106,0.72108 -1.7977542,0.72108 -0.7013213,0 -1.2544773,-0.31609 -0.543277,-0.32597 -0.859366,-0.93839 -0.316088,-0.6223 -0.316088,-1.50142 0,-1.31374 0.66181,-2.02494 0.661811,-0.7112 1.7977546,-0.7112 0.7210772,0 1.2643546,0.32596 0.5531551,0.31609 0.859366,0.92851 0.3160887,0.60255 0.3160887,1.48167 z m -4.0004969,0 q 0,0.93839 0.365477,1.49154 0.375356,0.54328 1.1853328,0.54328 0.8000994,0 1.1754547,-0.54328 0.3753553,-0.55315 0.3753553,-1.49154 0,-0.93839 -0.3753553,-1.47179 -0.3753553,-0.5334 -1.1853325,-0.5334 -0.809977,0 -1.175455,0.5334 -0.365477,0.5334 -0.365477,1.47179 z"
             style="font-family:sans-serif;-inkscape-font-specification:sans-serif"
             id="path3728" />
          <path
             d="m -3.4823287,198.49569 q 0.948266,0 1.4322767,0.46425 0.4840108,0.45438 0.4840108,1.48167 v 3.44734 h -0.859366 v -3.38808 q 0,-1.27423 -1.1853325,-1.27423 -0.8791215,0 -1.2149657,0.49389 -0.3358442,0.49389 -0.3358442,1.4224 v 2.74602 h -0.8692438 v -5.29449 h 0.7013217 l 0.128411,0.72108 h 0.049389 q 0.2568221,-0.41486 0.7111995,-0.61242 0.4543774,-0.20743 0.9581435,-0.20743 z"
             style="font-family:sans-serif;-inkscape-font-specification:sans-serif"
             id="path3730" />
          <path
             d="m 2.0788594,198.50557 q 0.9680216,0 1.4322768,0.42474 0.4642552,0.42474 0.4642552,1.35325 v 3.60539 H 3.3432141 L 3.175292,203.13824 H 3.135781 q -0.345722,0.43462 -0.730955,0.64205 -0.3753553,0.20744 -1.0470437,0.20744 -0.72107723,0 -1.19521021,-0.37536 -0.47413298,-0.38523 -0.47413298,-1.19521 0,-0.79022 0.62229953,-1.21496 0.62229954,-0.43463 1.91628746,-0.47414 l 0.8988771,-0.0296 v -0.31609 q 0,-0.66181 -0.2864553,-0.91863 -0.2864554,-0.25682 -0.8099772,-0.25682 -0.4148664,0 -0.7902216,0.12841 -0.37535531,0.11853 -0.70132174,0.27658 l -0.2666998,-0.65194 q 0.34572197,-0.18768 0.81985494,-0.31609 0.474133,-0.13828 0.987777,-0.13828 z m 0.2568221,2.82504 q -0.9877771,0.0395 -1.37301011,0.31609 -0.37535527,0.27657 -0.37535527,0.78034 0,0.4445 0.2666998,0.65193 0.27657758,0.20744 0.70132168,0.20744 0.6716884,0 1.1161881,-0.36548 0.4444996,-0.37536 0.4444996,-1.14582 v -0.47414 z"
             style="font-family:sans-serif;-inkscape-font-specification:sans-serif"
             id="path3732" />
          <path
             d="M 6.4843511,203.88895 H 5.6151073 v -7.50711 h 0.8692438 z"
             style="font-family:sans-serif;-inkscape-font-specification:sans-serif"
             id="path3734" />
        </g>
        <g
           aria-label="Nível Tático"
           id="text3463-4"
           style="font-size:9.87777px;font-family:'Tw Cen MT Condensed';-inkscape-font-specification:'Tw Cen MT Condensed, ';text-align:center;direction:rtl;text-anchor:middle;stroke-width:0.613;stroke-linejoin:bevel">
          <path
             d="m -25.746799,142.62105 h -1.037166 l -3.773309,-5.85752 h -0.03951 q 0.01976,0.34572 0.04939,0.85937 0.02963,0.51364 0.02963,1.05692 v 3.94123 h -0.819854 v -7.05273 h 1.027288 l 3.76343,5.83776 h 0.03951 q -0.0099,-0.15804 -0.02963,-0.47413 -0.0099,-0.31609 -0.02963,-0.69144 -0.0099,-0.37536 -0.0099,-0.69145 v -3.98074 h 0.829733 z"
             style="font-family:sans-serif;-inkscape-font-specification:sans-serif"
             id="path3681" />
          <path
             d="m -23.079799,142.62105 h -0.869244 v -5.29449 h 0.869244 z m 1.027288,-7.4676 q -0.118533,0.1778 -0.365478,0.46426 -0.246944,0.27658 -0.533399,0.56303 -0.276578,0.27658 -0.513644,0.45438 h -0.572911 v -0.11853 q 0.148167,-0.18768 0.316089,-0.4445 0.1778,-0.25683 0.345722,-0.52353 0.167922,-0.27657 0.276577,-0.49388 h 1.047044 z"
             style="font-family:sans-serif;-inkscape-font-specification:sans-serif"
             id="path3683" />
          <path
             d="m -20.235007,142.62105 -2.005187,-5.29449 h 0.92851 l 1.126066,3.12138 q 0.07902,0.21731 0.167922,0.48401 0.0889,0.2667 0.158044,0.51364 0.06914,0.23707 0.09878,0.40499 h 0.03951 q 0.03951,-0.16792 0.108656,-0.41486 0.07902,-0.24695 0.167922,-0.51365 0.09878,-0.2667 0.167922,-0.47413 l 1.126066,-3.12138 h 0.92851 l -2.015065,5.29449 z"
             style="font-family:sans-serif;-inkscape-font-specification:sans-serif"
             id="path3685" />
          <path
             d="m -14.337984,137.22779 q 0.681566,0 1.165577,0.29633 0.493888,0.29633 0.75071,0.83961 0.2667,0.5334 0.2667,1.25448 v 0.52352 h -3.625142 q 0.01976,0.89887 0.454378,1.37301 0.4445,0.46425 1.234721,0.46425 0.503767,0 0.889,-0.0889 0.39511,-0.0988 0.809977,-0.27657 v 0.76058 q -0.404989,0.1778 -0.8001,0.25683 -0.39511,0.0889 -0.938388,0.0889 -0.75071,0 -1.333499,-0.30622 -0.572911,-0.30621 -0.898877,-0.90875 -0.316089,-0.61242 -0.316089,-1.49154 0,-0.86925 0.286456,-1.49155 0.296333,-0.6223 0.819855,-0.95814 0.533399,-0.33584 1.234721,-0.33584 z m -0.0099,0.71119 q -0.622299,0 -0.987777,0.40499 -0.3556,0.39511 -0.424744,1.10631 h 2.696631 q -0.0099,-0.67168 -0.316088,-1.08655 -0.306211,-0.42475 -0.968022,-0.42475 z"
             style="font-family:sans-serif;-inkscape-font-specification:sans-serif"
             id="path3687" />
          <path
             d="m -9.9423833,142.62105 h -0.8692437 v -7.50711 h 0.8692437 z"
             style="font-family:sans-serif;-inkscape-font-specification:sans-serif"
             id="path3689" />
          <path
             d="m -31.046231,155.02494 h -0.888999 v -6.27239 h -2.202743 v -0.78034 h 5.284607 v 0.78034 h -2.192865 z"
             style="font-family:sans-serif;-inkscape-font-specification:sans-serif"
             id="path3691" />
          <path
             d="m -26.690136,149.64155 q 0.968022,0 1.432277,0.42475 0.464255,0.42474 0.464255,1.35325 v 3.60539 h -0.632177 l -0.167922,-0.75071 h -0.03951 q -0.345722,0.43462 -0.730955,0.64205 -0.375356,0.20743 -1.047044,0.20743 -0.721077,0 -1.19521,-0.37535 -0.474133,-0.38523 -0.474133,-1.19521 0,-0.79022 0.622299,-1.21497 0.6223,-0.43462 1.916288,-0.47413 l 0.898877,-0.0296 v -0.31609 q 0,-0.66181 -0.286456,-0.91863 -0.286455,-0.25683 -0.809977,-0.25683 -0.414866,0 -0.790221,0.12841 -0.375356,0.11854 -0.701322,0.27658 l -0.2667,-0.65193 q 0.345722,-0.18768 0.819855,-0.31609 0.474133,-0.13829 0.987777,-0.13829 z m 0.256822,2.82504 q -0.987777,0.0395 -1.37301,0.31609 -0.375355,0.27658 -0.375355,0.78035 0,0.4445 0.2667,0.65193 0.276577,0.20743 0.701321,0.20743 0.671689,0 1.116188,-0.36548 0.4445,-0.37535 0.4445,-1.14582 v -0.47413 z m 1.135944,-4.90925 q -0.118533,0.1778 -0.365478,0.46426 -0.246944,0.27657 -0.533399,0.56303 -0.276578,0.27658 -0.513644,0.45438 h -0.572911 v -0.11854 q 0.148166,-0.18767 0.316089,-0.4445 0.177799,-0.25682 0.345722,-0.52352 0.167922,-0.27657 0.276577,-0.49389 h 1.047044 z"
             style="font-family:sans-serif;-inkscape-font-specification:sans-serif"
             id="path3693" />
          <path
             d="m -21.385766,154.41251 q 0.197556,0 0.404989,-0.0296 0.207433,-0.0395 0.335844,-0.079 v 0.66181 q -0.138289,0.0691 -0.395111,0.10866 -0.256822,0.0494 -0.493888,0.0494 -0.414867,0 -0.770466,-0.13828 -0.345722,-0.14817 -0.563033,-0.50377 -0.217311,-0.3556 -0.217311,-0.99766 v -3.08186 h -0.750711 v -0.41487 l 0.760589,-0.34572 0.345722,-1.12606 h 0.513644 v 1.21496 h 1.531054 v 0.67169 h -1.531054 v 3.06211 q 0,0.48401 0.227188,0.72108 0.237067,0.22718 0.602544,0.22718 z"
             style="font-family:sans-serif;-inkscape-font-specification:sans-serif"
             id="path3695" />
          <path
             d="m -19.143511,147.74502 q 0.197556,0 0.345722,0.13829 0.158044,0.12841 0.158044,0.41486 0,0.27658 -0.158044,0.41487 -0.148166,0.13829 -0.345722,0.13829 -0.217311,0 -0.365477,-0.13829 -0.148167,-0.13829 -0.148167,-0.41487 0,-0.28645 0.148167,-0.41486 0.148166,-0.13829 0.365477,-0.13829 z m 0.424744,1.98543 v 5.29449 h -0.869244 v -5.29449 z"
             style="font-family:sans-serif;-inkscape-font-specification:sans-serif"
             id="path3697" />
          <path
             d="m -14.91583,155.12371 q -0.701322,0 -1.254477,-0.28645 -0.543277,-0.28646 -0.859366,-0.889 -0.306211,-0.60254 -0.306211,-1.54093 0,-0.9779 0.325967,-1.59032 0.325966,-0.61243 0.879121,-0.89888 0.563033,-0.28646 1.274233,-0.28646 0.404988,0 0.780344,0.0889 0.375355,0.079 0.612421,0.19756 l -0.266699,0.72108 q -0.237067,-0.0889 -0.553156,-0.16793 -0.316088,-0.079 -0.592666,-0.079 -1.560688,0 -1.560688,2.00519 0,0.95814 0.375356,1.47179 0.385233,0.50376 1.135943,0.50376 0.434622,0 0.760589,-0.0889 0.335844,-0.0889 0.612421,-0.21731 v 0.77047 q -0.266699,0.13829 -0.592666,0.20743 -0.316088,0.079 -0.770466,0.079 z"
             style="font-family:sans-serif;-inkscape-font-specification:sans-serif"
             id="path3699" />
          <path
             d="m -7.6951842,152.36782 q 0,1.31374 -0.6716884,2.03482 -0.6618106,0.72107 -1.7977544,0.72107 -0.701321,0 -1.254477,-0.31608 -0.543277,-0.32597 -0.859366,-0.93839 -0.316088,-0.6223 -0.316088,-1.50142 0,-1.31375 0.66181,-2.02495 0.661811,-0.7112 1.797755,-0.7112 0.7210768,0 1.2643542,0.32597 0.5531551,0.31609 0.859366,0.92851 0.3160886,0.60254 0.3160886,1.48167 z m -4.0004968,0 q 0,0.93838 0.365477,1.49154 0.375356,0.54328 1.185333,0.54328 0.8000992,0 1.1754544,-0.54328 0.3753553,-0.55316 0.3753553,-1.49154 0,-0.93839 -0.3753553,-1.47179 -0.3753552,-0.5334 -1.1853324,-0.5334 -0.809977,0 -1.175455,0.5334 -0.365477,0.5334 -0.365477,1.47179 z"
             style="font-family:sans-serif;-inkscape-font-specification:sans-serif"
             id="path3701" />
        </g>
        <g
           aria-label="Nível Estratégico"
           id="text3463-4-5"
           style="font-size:9.87777px;font-family:'Tw Cen MT Condensed';-inkscape-font-specification:'Tw Cen MT Condensed, ';text-align:center;direction:rtl;text-anchor:middle;stroke-width:0.613;stroke-linejoin:bevel">
          <path
             d="m -26.176483,91.485107 h -1.037166 l -3.773308,-5.857517 h -0.03951 q 0.01975,0.345722 0.04939,0.859366 0.02963,0.513644 0.02963,1.056921 v 3.94123 h -0.819855 v -7.052728 h 1.027288 l 3.763431,5.837763 h 0.03951 q -0.0099,-0.158045 -0.02963,-0.474133 -0.0099,-0.316089 -0.02963,-0.691444 -0.0099,-0.375356 -0.0099,-0.691444 v -3.980742 h 0.829733 z"
             style="font-family:sans-serif;-inkscape-font-specification:sans-serif"
             id="path3648" />
          <path
             d="m -23.509483,91.485107 h -0.869244 v -5.294485 h 0.869244 z m 1.027288,-7.467594 q -0.118533,0.1778 -0.365477,0.464255 -0.246945,0.276578 -0.5334,0.563033 -0.276577,0.276578 -0.513644,0.454378 h -0.572911 v -0.118534 q 0.148167,-0.187677 0.316089,-0.444499 0.1778,-0.256822 0.345722,-0.523522 0.167922,-0.276578 0.276578,-0.493889 h 1.047043 z"
             style="font-family:sans-serif;-inkscape-font-specification:sans-serif"
             id="path3650" />
          <path
             d="m -20.664691,91.485107 -2.005187,-5.294485 h 0.92851 l 1.126066,3.121376 q 0.07902,0.217311 0.167922,0.484011 0.0889,0.266699 0.158045,0.513644 0.06914,0.237066 0.09878,0.404988 h 0.03951 q 0.03951,-0.167922 0.108656,-0.414866 0.07902,-0.246944 0.167922,-0.513644 0.09878,-0.2667 0.167922,-0.474133 l 1.126066,-3.121376 h 0.92851 l -2.015065,5.294485 z"
             style="font-family:sans-serif;-inkscape-font-specification:sans-serif"
             id="path3652" />
          <path
             d="m -14.767668,86.091845 q 0.681566,0 1.165577,0.296333 0.493889,0.296333 0.750711,0.83961 0.2667,0.5334 0.2667,1.254477 v 0.523522 h -3.625142 q 0.01975,0.898877 0.454377,1.37301 0.4445,0.464255 1.234722,0.464255 0.503766,0 0.888999,-0.0889 0.395111,-0.09878 0.809977,-0.276577 v 0.760588 q -0.404989,0.1778 -0.800099,0.256822 -0.395111,0.0889 -0.938389,0.0889 -0.75071,0 -1.333499,-0.306211 -0.57291,-0.306211 -0.898877,-0.908755 -0.316088,-0.612421 -0.316088,-1.491543 0,-0.869244 0.286455,-1.491543 0.296333,-0.6223 0.819855,-0.958144 0.5334,-0.335844 1.234721,-0.335844 z m -0.0099,0.711199 q -0.6223,0 -0.987778,0.404989 -0.355599,0.395111 -0.424744,1.10631 h 2.696632 q -0.0099,-0.671688 -0.316089,-1.086555 -0.306211,-0.424744 -0.968021,-0.424744 z"
             style="font-family:sans-serif;-inkscape-font-specification:sans-serif"
             id="path3654" />
          <path
             d="m -10.372067,91.485107 h -0.869244 v -7.507105 h 0.869244 z"
             style="font-family:sans-serif;-inkscape-font-specification:sans-serif"
             id="path3656" />
          <path
             d="m -42.074756,103.889 h -3.94123 v -7.052732 h 3.94123 v 0.780343 h -3.052231 v 2.202743 h 2.874431 v 0.770466 h -2.874431 v 2.51883 h 3.052231 z"
             style="font-family:sans-serif;-inkscape-font-specification:sans-serif"
             id="path3658" />
          <path
             d="m -37.19514,102.42709 q 0,0.77046 -0.57291,1.16557 -0.572911,0.39511 -1.540933,0.39511 -0.553155,0 -0.958143,-0.0889 -0.395111,-0.0889 -0.701322,-0.24694 v -0.79022 q 0.316089,0.15804 0.760588,0.29633 0.454378,0.12841 0.918633,0.12841 0.661811,0 0.958144,-0.20743 0.296333,-0.21731 0.296333,-0.57291 0,-0.19756 -0.108656,-0.3556 -0.108655,-0.15805 -0.39511,-0.31609 -0.276578,-0.15804 -0.8001,-0.3556 -0.513644,-0.19756 -0.879121,-0.39511 -0.365478,-0.19756 -0.563033,-0.47413 -0.197556,-0.27658 -0.197556,-0.711204 0,-0.671688 0.543278,-1.037165 0.553155,-0.365478 1.442154,-0.365478 0.484011,0 0.898877,0.09878 0.424744,0.0889 0.790222,0.256822 l -0.296333,0.691444 q -0.335844,-0.138289 -0.701322,-0.237067 -0.365478,-0.09878 -0.750711,-0.09878 -0.533399,0 -0.819854,0.177799 -0.276578,0.167922 -0.276578,0.464256 0,0.217313 0.128411,0.375353 0.128411,0.14817 0.424744,0.29634 0.306211,0.13828 0.809977,0.33584 0.503767,0.18768 0.859366,0.38523 0.3556,0.19756 0.543278,0.48401 0.187677,0.27658 0.187677,0.70133 z"
             style="font-family:sans-serif;-inkscape-font-specification:sans-serif"
             id="path3660" />
          <path
             d="m -34.142908,103.27657 q 0.197556,0 0.404989,-0.0296 0.207433,-0.0395 0.335844,-0.079 v 0.66181 q -0.138289,0.0691 -0.395111,0.10865 -0.256822,0.0494 -0.493888,0.0494 -0.414867,0 -0.770466,-0.13829 -0.345722,-0.14816 -0.563033,-0.50376 -0.217311,-0.3556 -0.217311,-0.99766 v -3.081861 h -0.750711 v -0.414866 l 0.760589,-0.345722 0.345721,-1.126066 h 0.513645 v 1.214966 h 1.531054 v 0.671688 h -1.531054 v 3.062111 q 0,0.48401 0.227188,0.72108 0.237067,0.22718 0.602544,0.22718 z"
             style="font-family:sans-serif;-inkscape-font-specification:sans-serif"
             id="path3662" />
          <path
             d="m -29.87571,98.495733 q 0.148167,0 0.316089,0.01976 0.177799,0.0099 0.306211,0.03951 l -0.108656,0.800099 q -0.128411,-0.02963 -0.286455,-0.04939 -0.148167,-0.01976 -0.286456,-0.01976 -0.404988,0 -0.760588,0.227188 -0.3556,0.217311 -0.572911,0.6223 -0.207433,0.39511 -0.207433,0.92851 v 2.82505 h -0.869244 v -5.294492 h 0.7112 l 0.09878,0.968021 h 0.03951 q 0.256822,-0.434622 0.66181,-0.75071 0.404989,-0.316089 0.958144,-0.316089 z"
             style="font-family:sans-serif;-inkscape-font-specification:sans-serif"
             id="path3664" />
          <path
             d="m -26.458004,98.505611 q 0.968021,0 1.432276,0.424744 0.464256,0.424744 0.464256,1.353255 v 3.60539 h -0.632178 l -0.167922,-0.75071 h -0.03951 q -0.345722,0.43462 -0.730955,0.64205 -0.375355,0.20743 -1.047044,0.20743 -0.721077,0 -1.19521,-0.37535 -0.474133,-0.38523 -0.474133,-1.19521 0,-0.79022 0.6223,-1.21497 0.622299,-0.43462 1.916287,-0.47413 l 0.898877,-0.0296 v -0.31609 q 0,-0.661813 -0.286455,-0.918635 -0.286455,-0.256822 -0.809977,-0.256822 -0.414867,0 -0.790222,0.128411 -0.375355,0.118533 -0.701322,0.276577 l -0.266699,-0.651933 q 0.345722,-0.187677 0.819855,-0.316088 0.474133,-0.138289 0.987777,-0.138289 z m 0.256822,2.825039 q -0.987777,0.0395 -1.37301,0.31609 -0.375356,0.27658 -0.375356,0.78035 0,0.4445 0.2667,0.65193 0.276578,0.20743 0.701322,0.20743 0.671688,0 1.116188,-0.36548 0.4445,-0.37535 0.4445,-1.14582 v -0.47413 z"
             style="font-family:sans-serif;-inkscape-font-specification:sans-serif"
             id="path3666" />
          <path
             d="m -21.153634,103.27657 q 0.197556,0 0.404989,-0.0296 0.207433,-0.0395 0.335844,-0.079 v 0.66181 q -0.138289,0.0691 -0.395111,0.10865 -0.256822,0.0494 -0.493888,0.0494 -0.414867,0 -0.770466,-0.13829 -0.345722,-0.14816 -0.563033,-0.50376 -0.217311,-0.3556 -0.217311,-0.99766 v -3.081861 h -0.750711 v -0.414866 l 0.760589,-0.345722 0.345722,-1.126066 h 0.513644 v 1.214966 h 1.531054 v 0.671688 h -1.531054 v 3.062111 q 0,0.48401 0.227188,0.72108 0.237067,0.22718 0.602544,0.22718 z"
             style="font-family:sans-serif;-inkscape-font-specification:sans-serif"
             id="path3668" />
          <path
             d="m -17.31118,98.495733 q 0.681566,0 1.165577,0.296333 0.493888,0.296333 0.75071,0.839611 0.2667,0.533403 0.2667,1.254473 v 0.52353 h -3.625142 q 0.01976,0.89887 0.454378,1.37301 0.444499,0.46425 1.234721,0.46425 0.503766,0 0.888999,-0.0889 0.395111,-0.0988 0.809978,-0.27658 v 0.76059 q -0.404989,0.1778 -0.8001,0.25682 -0.395111,0.0889 -0.938388,0.0889 -0.750711,0 -1.333499,-0.30621 -0.572911,-0.30621 -0.898877,-0.90875 -0.316089,-0.61242 -0.316089,-1.49155 0,-0.86924 0.286456,-1.491539 0.296333,-0.6223 0.819855,-0.958144 0.533399,-0.335844 1.234721,-0.335844 z m -0.0099,0.7112 q -0.622299,0 -0.987777,0.404988 -0.3556,0.395109 -0.424744,1.106309 h 2.696631 q -0.0099,-0.67169 -0.316088,-1.086553 -0.306211,-0.424744 -0.968022,-0.424744 z m 1.402643,-2.785532 q -0.118533,0.1778 -0.365477,0.464255 -0.246944,0.276578 -0.5334,0.563033 -0.276577,0.276578 -0.513644,0.454378 h -0.57291 v -0.118533 q 0.148166,-0.187678 0.316088,-0.4445 0.1778,-0.256822 0.345722,-0.523522 0.167922,-0.276578 0.276578,-0.493888 h 1.047043 z"
             style="font-family:sans-serif;-inkscape-font-specification:sans-serif"
             id="path3670" />
          <path
             d="m -11.90805,98.495733 q 0.523522,0 0.938389,0.197555 0.424744,0.197556 0.721077,0.602544 h 0.04939 l 0.118533,-0.701321 h 0.6914438 v 5.383389 q 0,1.13594 -0.5827885,1.70885 -0.5729103,0.57291 -1.7878763,0.57291 -1.165577,0 -1.90641,-0.33584 v -0.8001 q 0.780344,0.41486 1.955799,0.41486 0.681566,0 1.066799,-0.40499 0.395111,-0.39511 0.395111,-1.08655 v -0.20743 q 0,-0.11854 0.0099,-0.33585 0.0099,-0.22719 0.01975,-0.31609 h -0.03951 q -0.5334,0.8001 -1.63971,0.8001 -1.027288,0 -1.610076,-0.72107 -0.572911,-0.72108 -0.572911,-2.01507 0,-1.264354 0.572911,-2.005186 0.582788,-0.750711 1.600198,-0.750711 z m 0.118534,0.730955 q -0.661811,0 -1.027289,0.5334 -0.365477,0.523522 -0.365477,1.501422 0,0.9779 0.3556,1.50142 0.365477,0.51364 1.056921,0.51364 0.8001,0 1.165577,-0.42474 0.365478,-0.43462 0.365478,-1.39277 v -0.20743 q 0,-1.08655 -0.375356,-1.550809 -0.375355,-0.474133 -1.175454,-0.474133 z"
             style="font-family:sans-serif;-inkscape-font-specification:sans-serif"
             id="path3672" />
          <path
             d="m -7.2654973,96.609079 q 0.1975554,0 0.345722,0.138289 0.1580443,0.128411 0.1580443,0.414866 0,0.276578 -0.1580443,0.414866 -0.1481666,0.138289 -0.345722,0.138289 -0.2173109,0 -0.3654775,-0.138289 -0.1481666,-0.138288 -0.1481666,-0.414866 0,-0.286455 0.1481666,-0.414866 0.1481666,-0.138289 0.3654775,-0.138289 z m 0.4247441,1.985432 V 103.889 H -7.709997 v -5.294489 z"
             style="font-family:sans-serif;-inkscape-font-specification:sans-serif"
             id="path3674" />
          <path
             d="m -3.0378182,103.98777 q -0.7013217,0 -1.2544769,-0.28645 -0.5432773,-0.28646 -0.859366,-0.889 -0.3062109,-0.60255 -0.3062109,-1.54093 0,-0.9779 0.3259664,-1.590325 0.3259665,-0.612421 0.8791216,-0.898877 0.5630329,-0.286455 1.2742324,-0.286455 0.4049886,0 0.7803439,0.0889 0.3753552,0.07902 0.6124217,0.197555 l -0.2666998,0.721078 q -0.2370665,-0.0889 -0.5531551,-0.167922 -0.3160887,-0.07902 -0.5926662,-0.07902 -1.5606878,0 -1.5606878,2.005186 0,0.95814 0.3753553,1.47179 0.3852331,0.50376 1.1359436,0.50376 0.4346219,0 0.7605883,-0.0889 0.3358442,-0.0889 0.6124218,-0.21731 v 0.77047 q -0.2666998,0.13829 -0.5926662,0.20743 -0.3160887,0.079 -0.7704661,0.079 z"
             style="font-family:sans-serif;-inkscape-font-specification:sans-serif"
             id="path3676" />
          <path
             d="m 4.1828275,101.23188 q 0,1.31374 -0.6716884,2.03482 -0.6618106,0.72107 -1.7977542,0.72107 -0.7013217,0 -1.25447682,-0.31609 -0.54327737,-0.32596 -0.85936602,-0.93838 -0.31608866,-0.6223 -0.31608866,-1.50142 0,-1.313748 0.66181062,-2.024947 0.66181062,-0.7112 1.79775418,-0.7112 0.7210773,0 1.2643547,0.325966 0.5531551,0.316089 0.859366,0.928511 0.3160886,0.60254 0.3160886,1.48167 z m -4.00049699,0 q 0,0.93838 0.36547751,1.49154 0.37535527,0.54328 1.18533248,0.54328 0.8000994,0 1.1754546,-0.54328 0.3753553,-0.55316 0.3753553,-1.49154 0,-0.93839 -0.3753553,-1.471792 -0.3753552,-0.5334 -1.1853324,-0.5334 -0.80997718,0 -1.17545468,0.5334 -0.36547751,0.533402 -0.36547751,1.471792 z"
             style="font-family:sans-serif;-inkscape-font-specification:sans-serif"
             id="path3678" />
        </g>
        <g
           aria-label="SAE"
           id="text3463-4-5-3"
           style="font-size:9.87777px;font-family:'Tw Cen MT Condensed';-inkscape-font-specification:'Tw Cen MT Condensed, ';text-align:center;direction:rtl;text-anchor:middle;stroke-width:0.613;stroke-linejoin:bevel">
          <path
             d="m 206.26177,96.352856 0.88264,-0.07717 q 0.0627,0.530544 0.28938,0.872986 0.23151,0.337619 0.71383,0.549837 0.48231,0.207394 1.0852,0.207394 0.53537,0 0.94533,-0.159163 0.40997,-0.159163 0.60772,-0.434082 0.20257,-0.279741 0.20257,-0.607714 0,-0.332796 -0.19293,-0.578776 -0.19292,-0.250802 -0.63665,-0.419612 -0.28456,-0.110932 -1.25884,-0.342442 -0.97427,-0.236333 -1.36494,-0.443728 -0.50643,-0.265272 -0.75723,-0.655946 -0.24598,-0.395496 -0.24598,-0.882633 0,-0.535367 0.30385,-0.998387 0.30386,-0.467844 0.88746,-0.709001 0.5836,-0.241156 1.29742,-0.241156 0.78617,0 1.38424,0.255626 0.60289,0.250803 0.92604,0.742762 0.32315,0.491959 0.34727,1.114143 l -0.8971,0.06752 q -0.0724,-0.670415 -0.49196,-1.012858 -0.41479,-0.342442 -1.2299,-0.342442 -0.84887,0 -1.23955,0.313504 -0.38585,0.30868 -0.38585,0.747585 0,0.381027 0.27492,0.627007 0.2701,0.245979 1.40836,0.506428 1.14308,0.255626 1.56751,0.448551 0.61736,0.284565 0.91157,0.72347 0.29422,0.434082 0.29422,1.003211 0,0.564306 -0.32315,1.065912 -0.32315,0.496782 -0.93087,0.776524 -0.60289,0.274918 -1.36012,0.274918 -0.9598,0 -1.61093,-0.279741 -0.6463,-0.279742 -1.01768,-0.839225 -0.36656,-0.564306 -0.38585,-1.273306 z"
             style="font-family:Arial;-inkscape-font-specification:Arial"
             id="path3641" />
          <path
             d="m 212.39197,98.62455 2.71542,-7.070709 h 1.00804 l 2.89387,7.070709 h -1.06591 l -0.82475,-2.14147 h -2.95658 l -0.77652,2.14147 z m 2.04018,-2.903524 h 2.3971 l -0.73794,-1.958191 q -0.33762,-0.892279 -0.5016,-1.466232 -0.13505,0.680062 -0.38103,1.350477 z"
             style="font-family:Arial;-inkscape-font-specification:Arial"
             id="path3643" />
          <path
             d="m 219.77618,98.62455 v -7.070709 h 5.11252 v 0.834402 h -4.17683 v 2.165585 h 3.91156 v 0.829578 h -3.91156 v 2.406742 h 4.34082 v 0.834402 z"
             style="font-family:Arial;-inkscape-font-specification:Arial"
             id="path3645" />
        </g>
        <g
           id="g1037"
           transform="translate(0.77877,-8.247775)"
           style="font-size:9.87777px;font-family:'Tw Cen MT Condensed';-inkscape-font-specification:'Tw Cen MT Condensed, ';text-align:center;direction:rtl;text-anchor:middle;stroke-width:0.613;stroke-linejoin:bevel">
          <path
             d="m 204.93316,133.25664 0.88263,-0.0772 q 0.0627,0.53054 0.28939,0.87298 0.23151,0.33762 0.71382,0.54984 0.48232,0.2074 1.08521,0.2074 0.53537,0 0.94533,-0.15917 0.40997,-0.15916 0.60772,-0.43408 0.20257,-0.27974 0.20257,-0.60771 0,-0.3328 -0.19293,-0.57878 -0.19292,-0.2508 -0.63665,-0.41961 -0.28456,-0.11093 -1.25884,-0.34244 -0.97427,-0.23634 -1.36494,-0.44373 -0.50643,-0.26527 -0.75723,-0.65595 -0.24598,-0.39549 -0.24598,-0.88263 0,-0.53537 0.30385,-0.99839 0.30386,-0.46784 0.88746,-0.709 0.5836,-0.24115 1.29742,-0.24115 0.78617,0 1.38424,0.25562 0.60289,0.2508 0.92604,0.74276 0.32315,0.49196 0.34727,1.11415 l -0.89711,0.0675 q -0.0723,-0.67042 -0.49196,-1.01286 -0.41478,-0.34244 -1.22989,-0.34244 -0.84887,0 -1.23955,0.3135 -0.38585,0.30868 -0.38585,0.74759 0,0.38103 0.27492,0.62701 0.27009,0.24598 1.40835,0.50642 1.14309,0.25563 1.56752,0.44856 0.61736,0.28456 0.91157,0.72347 0.29421,0.43408 0.29421,1.00321 0,0.5643 -0.32315,1.06591 -0.32315,0.49678 -0.93086,0.77652 -0.60289,0.27492 -1.36012,0.27492 -0.95981,0 -1.61093,-0.27974 -0.6463,-0.27974 -1.01768,-0.83923 -0.36656,-0.5643 -0.38585,-1.2733 z"
             style="font-family:Arial;-inkscape-font-specification:Arial"
             id="path3626" />
          <path
             d="m 211.06336,135.52833 2.71542,-7.07071 h 1.00804 l 2.89387,7.07071 h -1.06591 l -0.82475,-2.14147 h -2.95658 l -0.77653,2.14147 z m 2.04018,-2.90352 h 2.3971 l -0.73794,-1.95819 q -0.33762,-0.89228 -0.50161,-1.46623 -0.13504,0.68006 -0.38102,1.35047 z"
             style="font-family:Arial;-inkscape-font-specification:Arial"
             id="path3628" />
          <path
             d="m 218.42828,135.52833 v -7.07071 h 2.43568 q 0.82475,0 1.25884,0.10129 0.60771,0.13987 1.03697,0.50643 0.55948,0.47266 0.8344,1.2106 0.27974,0.73312 0.27974,1.67845 0,0.80547 -0.1881,1.42765 -0.1881,0.62218 -0.48231,1.03215 -0.29421,0.40514 -0.6463,0.64148 -0.34727,0.23151 -0.84405,0.35208 -0.49196,0.12058 -1.13344,0.12058 z m 0.93569,-0.8344 h 1.50964 q 0.69935,0 1.09485,-0.13022 0.40032,-0.13023 0.63665,-0.36656 0.33279,-0.3328 0.51607,-0.89228 0.18811,-0.56431 0.18811,-1.36495 0,-1.10932 -0.36656,-1.70256 -0.36174,-0.59807 -0.88263,-0.80064 -0.37621,-0.14469 -1.21061,-0.14469 h -1.48552 z"
             style="font-family:Arial;-inkscape-font-specification:Arial"
             id="path3630" />
        </g>
        <g
           id="g1163"
           transform="translate(0,21.344075)">
          <path
             d="m 209.09777,146.35285 0.88263,-0.0772 q 0.0627,0.53054 0.28939,0.87298 0.23151,0.33762 0.71382,0.54984 0.48231,0.2074 1.08521,0.2074 0.53536,0 0.94533,-0.15917 0.40997,-0.15916 0.60771,-0.43408 0.20258,-0.27974 0.20258,-0.60771 0,-0.3328 -0.19293,-0.57878 -0.19293,-0.2508 -0.63665,-0.41961 -0.28457,-0.11093 -1.25884,-0.34244 -0.97427,-0.23634 -1.36495,-0.44373 -0.50642,-0.26527 -0.75723,-0.65595 -0.24598,-0.39549 -0.24598,-0.88263 0,-0.53537 0.30386,-0.99839 0.30386,-0.46784 0.88746,-0.709 0.58359,-0.24115 1.29742,-0.24115 0.78617,0 1.38424,0.25562 0.60289,0.2508 0.92604,0.74276 0.32315,0.49196 0.34726,1.11415 l -0.8971,0.0675 q -0.0724,-0.67042 -0.49196,-1.01286 -0.41479,-0.34244 -1.2299,-0.34244 -0.84887,0 -1.23954,0.3135 -0.38585,0.30868 -0.38585,0.74759 0,0.38103 0.27492,0.62701 0.27009,0.24598 1.40835,0.50642 1.14308,0.25563 1.56752,0.44856 0.61736,0.28456 0.91157,0.72347 0.29421,0.43408 0.29421,1.00321 0,0.5643 -0.32315,1.06591 -0.32315,0.49678 -0.93086,0.77652 -0.60289,0.27492 -1.36013,0.27492 -0.9598,0 -1.61092,-0.27974 -0.6463,-0.27974 -1.01768,-0.83923 -0.36656,-0.5643 -0.38585,-1.2733 z"
             style="font-size:9.87777px;font-family:Arial;-inkscape-font-specification:Arial;text-align:center;direction:rtl;text-anchor:middle;stroke-width:0.613;stroke-linejoin:bevel"
             id="path3634" />
          <path
             d="m 216.16365,148.62454 v -7.07071 h 0.93569 v 7.07071 z"
             style="font-size:9.87777px;font-family:Arial;-inkscape-font-specification:Arial;text-align:center;direction:rtl;text-anchor:middle;stroke-width:0.613;stroke-linejoin:bevel"
             id="path3636" />
          <path
             d="m 222.05752,145.85124 v -0.82958 l 2.99516,-0.005 v 2.62378 q -0.6897,0.54984 -1.42282,0.82958 -0.73312,0.27492 -1.50482,0.27492 -1.04179,0 -1.89549,-0.44373 -0.84887,-0.44855 -1.28295,-1.2926 -0.43408,-0.84404 -0.43408,-1.88584 0,-1.03215 0.42926,-1.92443 0.43408,-0.8971 1.24437,-1.33118 0.81028,-0.43408 1.86655,-0.43408 0.76687,0 1.38423,0.2508 0.62219,0.24598 0.97428,0.68971 0.35209,0.44372 0.53536,1.15755 l -0.84404,0.23151 q -0.15917,-0.54019 -0.3955,-0.84887 -0.23633,-0.30868 -0.67524,-0.49196 -0.4389,-0.18811 -0.97427,-0.18811 -0.64148,0 -1.10932,0.19775 -0.46784,0.19293 -0.75723,0.51125 -0.28457,0.31833 -0.44373,0.69936 -0.2701,0.65594 -0.2701,1.42282 0,0.94534 0.32315,1.58199 0.32798,0.63665 0.95016,0.94533 0.62219,0.30868 1.32154,0.30868 0.60771,0 1.18649,-0.23151 0.57877,-0.23633 0.87781,-0.5016 v -1.31672 z"
             style="font-size:9.87777px;font-family:Arial;-inkscape-font-specification:Arial;text-align:center;direction:rtl;text-anchor:middle;stroke-width:0.613;stroke-linejoin:bevel"
             id="path3638" />
        </g>
        <g
           aria-label="SPT"
           id="text3463-4-5-3-8-8"
           style="font-size:9.87777px;font-family:'Tw Cen MT Condensed';-inkscape-font-specification:'Tw Cen MT Condensed, ';text-align:center;direction:rtl;text-anchor:middle;stroke-width:0.613;stroke-linejoin:bevel">
          <path
             d="m 206.48364,196.3528 0.88263,-0.0772 q 0.0627,0.53055 0.28939,0.87299 0.23151,0.33762 0.71382,0.54984 0.48231,0.20739 1.0852,0.20739 0.53537,0 0.94534,-0.15916 0.40996,-0.15917 0.60771,-0.43408 0.20257,-0.27975 0.20257,-0.60772 0,-0.3328 -0.19292,-0.57877 -0.19293,-0.25081 -0.63665,-0.41962 -0.28457,-0.11093 -1.25884,-0.34244 -0.97427,-0.23633 -1.36495,-0.44373 -0.50643,-0.26527 -0.75723,-0.65594 -0.24598,-0.3955 -0.24598,-0.88264 0,-0.53536 0.30386,-0.99838 0.30386,-0.46785 0.88745,-0.709 0.5836,-0.24116 1.29743,-0.24116 0.78617,0 1.38424,0.25563 0.60289,0.2508 0.92604,0.74276 0.32315,0.49196 0.34726,1.11414 l -0.8971,0.0675 q -0.0724,-0.67041 -0.49196,-1.01285 -0.41479,-0.34245 -1.2299,-0.34245 -0.84887,0 -1.23954,0.31351 -0.38585,0.30868 -0.38585,0.74758 0,0.38103 0.27492,0.62701 0.27009,0.24598 1.40835,0.50643 1.14308,0.25562 1.56752,0.44855 0.61736,0.28456 0.91157,0.72347 0.29421,0.43408 0.29421,1.00321 0,0.56431 -0.32315,1.06591 -0.32315,0.49678 -0.93086,0.77653 -0.6029,0.27491 -1.36013,0.27491 -0.9598,0 -1.61092,-0.27974 -0.6463,-0.27974 -1.01768,-0.83922 -0.36656,-0.56431 -0.38585,-1.27331 z"
             style="font-family:Arial;-inkscape-font-specification:Arial"
             id="path3619" />
          <path
             d="m 213.39036,198.6245 v -7.07071 h 2.66719 q 0.70418,0 1.07556,0.0675 0.5209,0.0868 0.87298,0.3328 0.35209,0.24115 0.56431,0.68006 0.21704,0.4389 0.21704,0.96462 0,0.90193 -0.57395,1.52894 -0.57395,0.62218 -2.07395,0.62218 h -1.81349 v 2.87459 z m 0.93569,-3.70899 h 1.82796 q 0.90675,0 1.28778,-0.33762 0.38103,-0.33762 0.38103,-0.95016 0,-0.44372 -0.22669,-0.75723 -0.22187,-0.31832 -0.58842,-0.41961 -0.23634,-0.0627 -0.87299,-0.0627 h -1.80867 z"
             style="font-family:Arial;-inkscape-font-specification:Arial"
             id="path3621" />
          <path
             d="m 221.77778,198.6245 v -6.23631 h -2.32957 v -0.8344 h 5.60448 v 0.8344 h -2.33922 v 6.23631 z"
             style="font-family:Arial;-inkscape-font-specification:Arial"
             id="path3623" />
        </g>
      </g>
    </g>
  </g>
</svg>
